<svg width="13" height="13" viewBox="0 0 13 13" fill="none" xmlns="http://www.w3.org/2000/svg">
<path d="M12.7143 2.13371C12.3206 1.43125 11.5739 0.995117 10.7658 0.995117C10.3855 0.995117 10.0088 1.09366 9.67724 1.27999L5.4839 3.63384L5.9663 4.49361L10.1599 2.13976C10.3453 2.03586 10.5549 1.98091 10.7665 1.98091C11.218 1.98091 11.6349 2.22423 11.8548 2.61614C12.0172 2.90571 12.057 3.24152 11.9667 3.56191C11.8769 3.8823 11.6678 4.14864 11.3782 4.31107L7.57698 6.44417C7.50458 5.98098 7.28853 5.55381 6.95047 5.21553C6.35436 4.62007 5.40947 4.40939 4.61586 4.69426L4.27269 4.81782L4.60605 5.74506L4.95057 5.62217C5.39386 5.46085 5.92139 5.58105 6.25362 5.91262C6.44531 6.10454 6.56664 6.34763 6.60507 6.61107C6.58899 6.60727 6.57288 6.60323 6.55749 6.59878C6.23641 6.50851 5.97053 6.29917 5.80789 6.00847L5.6287 5.69187L4.76828 6.17537L4.94859 6.49197C5.23996 7.01188 5.7163 7.38724 6.29095 7.54857C6.31082 7.55371 6.33094 7.55929 6.35106 7.56399C6.32069 7.60241 6.28828 7.63905 6.25387 7.67347L3.11156 10.816C2.87651 11.0508 2.56371 11.18 2.23101 11.18C1.89809 11.18 1.58528 11.0508 1.35068 10.816C1.11608 10.5812 0.986948 10.2688 0.986948 9.93567C0.986948 9.60275 1.11608 9.2902 1.35068 9.05559L4.07989 6.32663L3.38258 5.62931L0.653613 8.35828C0.232155 8.78007 0 9.34022 0 9.93565C0 10.5315 0.232155 11.0914 0.653531 11.5133C1.07515 11.9349 1.63506 12.1666 2.23095 12.1666C2.82684 12.1666 3.38675 11.9349 3.80838 11.5133L6.95138 8.37098C7.1815 8.13995 7.35846 7.86065 7.46929 7.55434C7.65139 7.50585 7.82453 7.43614 7.98541 7.34544L11.8608 5.1708C12.3796 4.87922 12.7545 4.40265 12.9156 3.82867C13.0769 3.25444 13.0054 2.65228 12.7143 2.13371Z" fill="white"/>
<path d="M4.76018 3.89671C4.88396 3.87414 4.96664 3.75529 4.94407 3.63127L4.47396 1.0216C4.45139 0.897387 4.33207 0.814707 4.2083 0.836834C4.0843 0.859401 4.0014 0.978254 4.02397 1.10272L4.4943 3.71191C4.51665 3.8364 4.63575 3.91884 4.76018 3.89671Z" fill="white"/>
<path d="M1.19739 5.27115L3.80684 4.80059C3.93105 4.77803 4.01373 4.65917 3.99117 4.53515C3.9686 4.41069 3.84975 4.32782 3.72595 4.35038L1.11628 4.82115C0.992505 4.84306 0.909605 4.96258 0.932172 5.0866C0.954299 5.21084 1.07362 5.29349 1.19739 5.27115Z" fill="white"/>
</svg>
