<svg width="30" height="31" viewBox="0 0 30 31" fill="none" xmlns="http://www.w3.org/2000/svg">
<g clip-path="url(#clip0)">
<path d="M14.8854 30.0792C23.0148 30.0792 29.6049 23.4891 29.6049 15.3598C29.6049 7.23049 23.0148 0.640381 14.8854 0.640381C6.75613 0.640381 0.166016 7.23049 0.166016 15.3598C0.166016 23.4891 6.75613 30.0792 14.8854 30.0792Z" fill="#3B5998"/>
<path d="M18.5863 15.9359H15.9602V25.5586H11.9807V15.9359H10.0879V12.5545H11.9807V10.3661C11.9807 8.80118 12.7239 6.35083 15.9954 6.35083L18.9449 6.36297V9.64552H16.8051C16.6858 9.63923 16.5665 9.65942 16.4559 9.70466C16.3453 9.7499 16.2461 9.81906 16.1654 9.90719C16.0847 9.99531 16.0244 10.1002 15.9891 10.2143C15.9537 10.3285 15.944 10.449 15.9607 10.5674V12.5603H18.9345L18.5863 15.9359Z" fill="white"/>
</g>
<defs>
<clipPath id="clip0">
<rect width="29.4388" height="29.4388" fill="white" transform="translate(0.166016 0.640381)"/>
</clipPath>
</defs>
</svg>
