<svg width="30" height="31" viewBox="0 0 30 31" fill="none" xmlns="http://www.w3.org/2000/svg">
<g clip-path="url(#clip0)">
<path d="M6.68927 18.6034L5.66506 22.4301L1.91986 22.5094C0.787117 20.3993 0.185315 18.0451 0.166472 15.6503C0.14763 13.2554 0.712314 10.892 1.81171 8.7644L5.14631 9.37568L6.60715 12.69C5.95019 14.6118 5.97941 16.7019 6.68985 18.6045L6.68927 18.6034Z" fill="#FBBB00"/>
<path d="M29.3486 12.7825C29.8478 15.4068 29.6232 18.1175 28.6988 20.6238C27.7744 23.1301 26.1852 25.3375 24.1015 27.0092L19.9017 26.7946L19.3072 23.0841C21.0415 22.0675 22.3741 20.4861 23.0819 18.6044H15.2109V12.7825H29.3497H29.3486Z" fill="#518EF8"/>
<path d="M24.1003 27.0103C22.4158 28.3621 20.4546 29.3268 18.3556 29.836C16.2566 30.3452 14.0714 30.3863 11.9547 29.9566C9.83806 29.5268 7.84187 28.6367 6.10769 27.3492C4.3735 26.0618 2.94379 24.4086 1.91992 22.5069L6.68991 18.6021C7.13781 19.7959 7.8411 20.8775 8.75059 21.7711C9.66009 22.6648 10.7538 23.349 11.9553 23.7759C13.1568 24.2028 14.4371 24.3621 15.7066 24.2425C16.9761 24.123 18.2041 23.7277 19.3048 23.084L24.1003 27.0103Z" fill="#28B446"/>
<path d="M24.2808 4.20195L19.5126 8.10562C18.3955 7.40986 17.136 6.97495 15.8276 6.83324C14.5193 6.69152 13.1958 6.84666 11.9557 7.28709C10.7156 7.72753 9.59072 8.44194 8.66485 9.37716C7.73897 10.3124 7.0359 11.4443 6.60794 12.6888L1.8125 8.76317C2.82412 6.81062 4.26029 5.10949 6.01552 3.78474C7.77076 2.45999 9.80047 1.54527 11.9556 1.10778C14.1106 0.670279 16.3364 0.721118 18.4692 1.25656C20.6021 1.792 22.5879 2.79844 24.2808 4.20195Z" fill="#F14336"/>
</g>
<defs>
<clipPath id="clip0">
<rect width="29.4388" height="29.4388" fill="white" transform="translate(0.166016 0.812988)"/>
</clipPath>
</defs>
</svg>
