<svg width="28" height="28" viewBox="0 0 28 28" fill="none" xmlns="http://www.w3.org/2000/svg">
<path d="M27.5206 5.00818C27.2658 2.6203 25.3799 0.734009 22.9918 0.47937C17.0031 -0.15979 10.9969 -0.15979 5.00839 0.47937C2.6203 0.734222 0.734222 2.6203 0.47937 5.00818C-0.15979 10.9967 -0.15979 17.0031 0.47937 22.9916C0.734222 25.3797 2.6203 27.2658 5.00818 27.5206C10.9967 28.1598 17.0031 28.1598 22.9918 27.5206C25.3799 27.2658 27.2658 25.3797 27.5206 22.9916C28.1598 17.0031 28.1598 10.9969 27.5206 5.00818Z" fill="url(#paint0_radial)"/>
<path d="M25.998 6.02101C25.772 3.90208 24.0985 2.22835 21.9793 2.00212C16.6652 1.43517 11.3353 1.43517 6.02126 2.00212C3.90233 2.22835 2.22859 3.90208 2.00237 6.02101C1.43541 11.3351 1.43541 16.665 2.00237 21.9789C2.22859 24.098 3.90233 25.7717 6.02126 25.9978C11.3353 26.5649 16.6652 26.5649 21.9791 25.9978C24.0983 25.7717 25.772 24.098 25.998 21.9789C26.5652 16.665 26.5652 11.3351 25.998 6.02101Z" fill="url(#paint1_linear)"/>
<path d="M0.419434 22.4111C0.43866 22.6047 0.458527 22.7982 0.479248 22.9918C0.7341 25.3796 2.62018 27.2657 5.00827 27.5206C10.9968 28.1597 17.0032 28.1597 22.9917 27.5206C25.3798 27.2657 27.2657 25.3796 27.5205 22.9918C27.5412 22.7982 27.5611 22.6047 27.5805 22.4111H0.419434Z" fill="url(#paint2_linear)"/>
<path d="M27.5206 22.9916C27.8641 19.7738 28.0226 16.5509 27.997 13.3284L21.5968 6.92821C20.7972 6.0154 19.6294 5.44567 18.257 5.39632C15.4349 5.29464 12.6037 5.29977 9.78113 5.39675C7.43683 5.4775 5.79749 7.05318 5.37708 9.36907C5.30295 9.77795 5.25851 10.1922 5.2002 10.604V17.3934C5.23245 17.6134 5.27988 17.8324 5.29462 18.0537C5.38861 19.4623 5.96753 20.6689 6.89444 21.4851L13.4074 27.9979C16.6036 28.0203 19.8 27.8614 22.9918 27.5206C25.3799 27.2658 27.2657 25.3797 27.5206 22.9916Z" fill="url(#paint3_linear)"/>
<path d="M27.5204 22.9919C27.2658 25.3796 25.3793 27.2661 22.9916 27.5208C19.8003 27.8613 16.6032 28.0204 13.4074 27.998L6.9043 21.4949C7.65817 22.1548 8.64084 22.5566 9.78116 22.5995C12.6031 22.7055 15.4349 22.7027 18.2569 22.601C20.8092 22.5087 22.6562 20.6197 22.7359 18.0673C22.8209 15.3573 22.8209 12.6402 22.7359 9.93018C22.6996 8.75269 22.2862 7.71661 21.6009 6.93262L27.997 13.3287C28.0222 16.5508 27.8637 19.7741 27.5204 22.9919Z" fill="url(#paint4_linear)"/>
<path d="M17.3038 10.968C16.4839 10.0753 15.3075 9.51514 13.9999 9.51514C11.5232 9.51514 9.51514 11.5232 9.51514 13.9999C9.51514 15.3075 10.0753 16.484 10.968 17.3038L21.3443 27.6802C21.8935 27.6323 22.4428 27.5791 22.9915 27.5206C25.3796 27.2657 27.2657 25.3796 27.5206 22.9916C27.5791 22.4428 27.6323 21.8935 27.6801 21.3443L17.3038 10.968Z" fill="url(#paint5_linear)"/>
<path d="M27.9458 17.0161L19.5948 8.66534C19.4 8.40964 19.093 8.24365 18.7467 8.24365C18.1576 8.24365 17.6797 8.72131 17.6797 9.3107C17.6797 9.65698 17.8457 9.96396 18.1014 10.1588L27.7964 19.8541C27.8622 18.9084 27.912 17.9622 27.9458 17.0161Z" fill="url(#paint6_linear)"/>
<path d="M5.2002 10.604C5.25851 10.1922 5.30295 9.77795 5.37708 9.36907C5.79727 7.05318 7.43683 5.4775 9.78113 5.39675C12.6037 5.29977 15.4349 5.29464 18.2571 5.39632C20.8086 5.48818 22.6564 7.37746 22.7361 9.92983C22.8209 12.6401 22.8209 15.3569 22.7361 18.0672C22.6564 20.6195 20.8092 22.5086 18.2573 22.6007C15.4351 22.7026 12.6033 22.7051 9.78134 22.5992C7.2294 22.5033 5.4653 20.6097 5.29462 18.0535C5.27988 17.8324 5.23245 17.6132 5.2002 17.3932C5.2002 15.1301 5.2002 12.8669 5.2002 10.604ZM14.0023 21.088C15.2939 21.088 16.5867 21.1267 17.8766 21.079C19.899 21.0041 21.1429 19.7971 21.1901 17.7766C21.2486 15.2591 21.2486 12.7381 21.1901 10.2204C21.1429 8.20034 19.8981 6.96517 17.8766 6.92223C15.3108 6.86797 12.7422 6.8684 10.1763 6.92223C8.1702 6.96432 6.92264 8.17449 6.86816 10.1723C6.79895 12.7217 6.79895 15.2755 6.86816 17.8249C6.92264 19.8225 8.1702 21.0047 10.1765 21.079C11.4502 21.1265 12.727 21.088 14.0023 21.088Z" fill="url(#paint7_linear)"/>
<path d="M5.2002 10.604C5.25851 10.1922 5.30295 9.77795 5.37708 9.36907C5.79727 7.05318 7.43683 5.4775 9.78113 5.39675C12.6037 5.29977 15.4349 5.29464 18.2571 5.39632C20.8086 5.48818 22.6564 7.37746 22.7361 9.92983C22.8209 12.6401 22.8209 15.3569 22.7361 18.0672C22.6564 20.6195 20.8092 22.5086 18.2573 22.6007C15.4351 22.7026 12.6033 22.7051 9.78134 22.5992C7.2294 22.5033 5.4653 20.6097 5.29462 18.0535C5.27988 17.8324 5.23245 17.6132 5.2002 17.3932C5.2002 15.1301 5.2002 12.8669 5.2002 10.604ZM14.0023 21.088C15.2939 21.088 16.5867 21.1267 17.8766 21.079C19.899 21.0041 21.1429 19.7971 21.1901 17.7766C21.2486 15.2591 21.2486 12.7381 21.1901 10.2204C21.1429 8.20034 19.8981 6.96517 17.8766 6.92223C15.3108 6.86797 12.7422 6.8684 10.1763 6.92223C8.1702 6.96432 6.92264 8.17449 6.86816 10.1723C6.79895 12.7217 6.79895 15.2755 6.86816 17.8249C6.92264 19.8225 8.1702 21.0047 10.1765 21.079C11.4502 21.1265 12.727 21.088 14.0023 21.088Z" fill="white"/>
<path d="M13.9999 9.51538C11.5232 9.51538 9.51514 11.5232 9.51514 14C9.51514 16.4769 11.5232 18.4848 13.9999 18.4848C16.4769 18.4848 18.4847 16.4769 18.4847 14C18.4847 11.5232 16.4769 9.51538 13.9999 9.51538ZM13.9999 16.9407C12.3758 16.9407 11.0592 15.6241 11.0592 14C11.0592 12.3758 12.3758 11.0592 13.9999 11.0592C15.6241 11.0592 16.9407 12.3758 16.9407 14C16.9407 15.6241 15.6241 16.9407 13.9999 16.9407Z" fill="white"/>
<path d="M19.8136 9.3107C19.8136 9.89987 19.3359 10.3775 18.7467 10.3775C18.1576 10.3775 17.6797 9.89987 17.6797 9.3107C17.6797 8.72131 18.1576 8.24365 18.7467 8.24365C19.3359 8.24365 19.8136 8.72131 19.8136 9.3107Z" fill="white"/>
<defs>
<radialGradient id="paint0_radial" cx="0" cy="0" r="1" gradientUnits="userSpaceOnUse" gradientTransform="translate(5.73984 24.4698) scale(30.8791)">
<stop stop-color="#FAE100"/>
<stop offset="0.0544" stop-color="#FADC04"/>
<stop offset="0.1167" stop-color="#FBCE0E"/>
<stop offset="0.1829" stop-color="#FCB720"/>
<stop offset="0.2514" stop-color="#FE9838"/>
<stop offset="0.3054" stop-color="#FF7950"/>
<stop offset="0.4922" stop-color="#FF1C74"/>
<stop offset="1" stop-color="#6C1CD1"/>
</radialGradient>
<linearGradient id="paint1_linear" x1="10.7394" y1="12.1658" x2="-36.6959" y2="-14.5166" gradientUnits="userSpaceOnUse">
<stop stop-color="#A1B5D8" stop-opacity="0"/>
<stop offset="0.3094" stop-color="#90A2BD" stop-opacity="0.309804"/>
<stop offset="0.7554" stop-color="#7C8B9C" stop-opacity="0.756863"/>
<stop offset="1" stop-color="#748290"/>
</linearGradient>
<linearGradient id="paint2_linear" x1="13.9999" y1="24.7168" x2="13.9999" y2="29.0813" gradientUnits="userSpaceOnUse">
<stop stop-color="#FAE100" stop-opacity="0"/>
<stop offset="0.3068" stop-color="#FCA800" stop-opacity="0.305882"/>
<stop offset="0.6275" stop-color="#FE7300" stop-opacity="0.627451"/>
<stop offset="0.8685" stop-color="#FF5200" stop-opacity="0.866667"/>
<stop offset="1" stop-color="#FF4500"/>
</linearGradient>
<linearGradient id="paint3_linear" x1="12.4071" y1="12.3675" x2="5.47751" y2="5.43791" gradientUnits="userSpaceOnUse">
<stop stop-color="#833AB4" stop-opacity="0"/>
<stop offset="1" stop-color="#833AB4"/>
</linearGradient>
<linearGradient id="paint4_linear" x1="19.1896" y1="25.6096" x2="15.731" y2="9.30452" gradientUnits="userSpaceOnUse">
<stop stop-color="#833AB4" stop-opacity="0"/>
<stop offset="1" stop-color="#833AB4"/>
</linearGradient>
<linearGradient id="paint5_linear" x1="20.5058" y1="20.5058" x2="6.6139" y2="6.61389" gradientUnits="userSpaceOnUse">
<stop stop-color="#833AB4" stop-opacity="0"/>
<stop offset="1" stop-color="#833AB4"/>
</linearGradient>
<linearGradient id="paint6_linear" x1="21.5363" y1="12.1003" x2="16.9425" y2="7.50648" gradientUnits="userSpaceOnUse">
<stop stop-color="#833AB4" stop-opacity="0"/>
<stop offset="1" stop-color="#833AB4"/>
</linearGradient>
<linearGradient id="paint7_linear" x1="19.5594" y1="8.47926" x2="8.23277" y2="19.8059" gradientUnits="userSpaceOnUse">
<stop stop-color="#833AB4"/>
<stop offset="0.0922" stop-color="#9C3495"/>
<stop offset="0.2927" stop-color="#DC2546"/>
<stop offset="0.392" stop-color="#FD1D1D"/>
<stop offset="0.5589" stop-color="#FC6831"/>
<stop offset="0.6887" stop-color="#FC9B40"/>
<stop offset="0.7521" stop-color="#FCAF45"/>
<stop offset="0.7806" stop-color="#FDB750"/>
<stop offset="0.8656" stop-color="#FECB6A"/>
<stop offset="0.9415" stop-color="#FFD87A"/>
<stop offset="1" stop-color="#FFDC80"/>
</linearGradient>
</defs>
</svg>
