<svg width="27" height="27" viewBox="0 0 27 27" fill="none" xmlns="http://www.w3.org/2000/svg">
<path d="M18.6856 1.80378H15.4314C15.2545 1.28013 14.7589 0.901916 14.1763 0.901916H13.251C12.8332 0.340189 12.1716 0 11.4707 0C10.7697 0 10.1081 0.340189 9.69035 0.901863H8.76502C8.18241 0.901863 7.68681 1.28007 7.50994 1.80373H4.25555C3.27648 1.80373 2.47998 2.60028 2.47998 3.57929V22.5187C2.47998 23.4978 3.27653 24.2943 4.25555 24.2943H13.2743C13.5078 24.2943 13.6971 24.105 13.6971 23.8715C13.6971 23.6381 13.5078 23.4488 13.2743 23.4488H4.25555C3.7427 23.4488 3.32547 23.0315 3.32547 22.5187V3.57935C3.32547 3.0665 3.7427 2.64927 4.25555 2.64927H7.44039V4.03028C7.44039 4.26373 7.62965 4.45305 7.86316 4.45305H15.0782C15.3116 4.45305 15.5009 4.26379 15.5009 4.03028V2.64927H18.6856C19.1985 2.64927 19.6157 3.0665 19.6157 3.57935V15.7547C19.6157 15.9882 19.805 16.1775 20.0385 16.1775C20.2719 16.1775 20.4612 15.9882 20.4612 15.7547V3.57935C20.4612 2.60028 19.6647 1.80378 18.6856 1.80378ZM14.6554 3.60751H8.28593V2.22813C8.28593 2.22755 8.28598 2.22708 8.28598 2.2265C8.28598 2.22623 8.28593 2.22592 8.28593 2.22571C8.2864 1.96182 8.50109 1.74735 8.76502 1.74735H9.91706C10.0676 1.74735 10.2067 1.66736 10.2825 1.53721C10.5346 1.1041 10.9788 0.84549 11.4707 0.84549C11.9626 0.84549 12.4068 1.1041 12.6589 1.53721C12.7345 1.6673 12.8738 1.74735 13.0243 1.74735H14.1763C14.4399 1.74735 14.6544 1.9614 14.6554 2.22486C14.6554 2.22544 14.6553 2.22592 14.6553 2.2265C14.6553 2.22761 14.6555 2.22866 14.6555 2.22977V3.60751H14.6554Z" fill="#878787"/>
<path d="M13.2742 21.645H5.12918V4.45297H6.05942C6.29287 4.45297 6.48219 4.2637 6.48219 4.03019C6.48219 3.79669 6.29292 3.60742 6.05942 3.60742H4.70646C4.47301 3.60742 4.28369 3.79669 4.28369 4.03019V22.0678C4.28369 22.3012 4.47296 22.4906 4.70646 22.4906H13.2742C13.5077 22.4906 13.697 22.3013 13.697 22.0678C13.6969 21.8343 13.5077 21.645 13.2742 21.645Z" fill="#878787"/>
<path d="M18.235 3.60742H16.8822C16.6488 3.60742 16.4595 3.79669 16.4595 4.03019C16.4595 4.2637 16.6487 4.45297 16.8822 4.45297H17.8123V15.7545C17.8123 15.988 18.0016 16.1773 18.2351 16.1773C18.4686 16.1773 18.6579 15.988 18.6579 15.7545V4.03019C18.6578 3.79674 18.4685 3.60742 18.235 3.60742Z" fill="#878787"/>
<path d="M19.5874 17.1357C16.8678 17.1357 14.6553 19.3483 14.6553 22.0679C14.6553 24.7875 16.8679 27 19.5874 27C22.307 27 24.5196 24.7875 24.5196 22.0679C24.5196 19.3483 22.307 17.1357 19.5874 17.1357ZM19.5874 26.1545C17.334 26.1545 15.5008 24.3213 15.5008 22.0679C15.5008 19.8145 17.334 17.9812 19.5874 17.9812C21.8408 17.9812 23.6741 19.8145 23.6741 22.0679C23.6741 24.3213 21.8409 26.1545 19.5874 26.1545Z" fill="#878787"/>
<path d="M11.4753 1.80371H11.4708C11.2373 1.80371 11.0503 1.99297 11.0503 2.22648C11.0503 2.45994 11.2418 2.64925 11.4753 2.64925C11.7087 2.64925 11.8981 2.45999 11.8981 2.22648C11.8981 1.99297 11.7088 1.80371 11.4753 1.80371Z" fill="#878787"/>
<path d="M22.1415 20.4161C21.9764 20.251 21.7087 20.251 21.5437 20.4161L18.686 23.2737L17.1812 21.7689C17.016 21.6038 16.7484 21.6038 16.5833 21.7689C16.4182 21.934 16.4182 22.2017 16.5833 22.3668L18.3871 24.1705C18.4696 24.2531 18.5778 24.2944 18.686 24.2944C18.7941 24.2944 18.9024 24.2531 18.9849 24.1705L22.1415 21.014C22.3066 20.8488 22.3066 20.5811 22.1415 20.4161Z" fill="#878787"/>
<path d="M9.63907 9.35017V7.64485C10.2347 7.74684 10.5973 8.05027 10.5973 8.27181C10.5973 8.50526 10.7866 8.69458 11.0201 8.69458C11.2536 8.69458 11.4428 8.50532 11.4428 8.27181C11.4428 7.52451 10.6786 6.9207 9.63907 6.79039V6.73576C9.63907 6.50231 9.4498 6.31299 9.2163 6.31299C8.98279 6.31299 8.79352 6.50225 8.79352 6.73576V6.79039C7.75397 6.92065 6.98975 7.52446 6.98975 8.27181C6.98975 9.3304 7.98268 9.73719 8.79352 9.98362V11.6889C8.19789 11.587 7.83529 11.2835 7.83529 11.062C7.83529 10.8285 7.64603 10.6392 7.41252 10.6392C7.17901 10.6392 6.98975 10.8285 6.98975 11.062C6.98975 11.8093 7.75397 12.4131 8.79352 12.5434V12.598C8.79352 12.8315 8.98279 13.0208 9.2163 13.0208C9.4498 13.0208 9.63907 12.8315 9.63907 12.598V12.5434C10.6786 12.4131 11.4428 11.8093 11.4428 11.062C11.4428 10.0034 10.4499 9.5966 9.63907 9.35017ZM8.79352 9.09188C8.08034 8.84334 7.83529 8.61922 7.83529 8.27181C7.83529 8.13813 7.9532 7.99047 8.15876 7.86681C8.33247 7.76229 8.55284 7.68672 8.79352 7.64543V9.09188ZM10.2738 11.467C10.1001 11.5715 9.87975 11.6471 9.63907 11.6884V10.2419C10.3522 10.4904 10.5973 10.7146 10.5973 11.062C10.5973 11.1957 10.4794 11.3433 10.2738 11.467Z" fill="#878787"/>
<path d="M15.529 7.21509H13.2743C13.0409 7.21509 12.8516 7.40435 12.8516 7.63786C12.8516 7.87137 13.0408 8.06063 13.2743 8.06063H15.529C15.7625 8.06063 15.9518 7.87137 15.9518 7.63786C15.9518 7.40435 15.7626 7.21509 15.529 7.21509Z" fill="#878787"/>
<path d="M14.6271 9.0188H13.2743C13.0409 9.0188 12.8516 9.20806 12.8516 9.44157C12.8516 9.67508 13.0408 9.86434 13.2743 9.86434H14.6271C14.8606 9.86434 15.0499 9.67508 15.0499 9.44157C15.0499 9.20806 14.8606 9.0188 14.6271 9.0188Z" fill="#878787"/>
<path d="M15.529 10.8225H13.2743C13.0409 10.8225 12.8516 11.0118 12.8516 11.2453C12.8516 11.4788 13.0408 11.6681 13.2743 11.6681H15.529C15.7625 11.6681 15.9518 11.4788 15.9518 11.2453C15.9518 11.0118 15.7626 10.8225 15.529 10.8225Z" fill="#878787"/>
<path d="M8.31438 14.8811H7.41252C7.17906 14.8811 6.98975 15.0704 6.98975 15.3039C6.98975 15.5374 7.17901 15.7266 7.41252 15.7266H8.31438C8.54784 15.7266 8.73715 15.5374 8.73715 15.3039C8.73715 15.0704 8.54784 14.8811 8.31438 14.8811Z" fill="#878787"/>
<path d="M8.31438 18.4885H7.41252C7.17906 18.4885 6.98975 18.6778 6.98975 18.9113C6.98975 19.1448 7.17901 19.3341 7.41252 19.3341H8.31438C8.54784 19.3341 8.73715 19.1448 8.73715 18.9113C8.73715 18.6778 8.54784 18.4885 8.31438 18.4885Z" fill="#878787"/>
<path d="M8.31438 16.6848H7.41252C7.17906 16.6848 6.98975 16.8741 6.98975 17.1076C6.98975 17.3411 7.17901 17.5304 7.41252 17.5304H8.31438C8.54784 17.5304 8.73715 17.3411 8.73715 17.1076C8.73715 16.8741 8.54784 16.6848 8.31438 16.6848Z" fill="#878787"/>
<path d="M15.5294 14.8811H10.1181C9.88463 14.8811 9.69531 15.0704 9.69531 15.3039C9.69531 15.5374 9.88458 15.7266 10.1181 15.7266H15.5294C15.7628 15.7266 15.9521 15.5374 15.9521 15.3039C15.9521 15.0704 15.7629 14.8811 15.5294 14.8811Z" fill="#878787"/>
<path d="M14.1765 18.4885H10.1181C9.88463 18.4885 9.69531 18.6778 9.69531 18.9113C9.69531 19.1448 9.88458 19.3341 10.1181 19.3341H14.1765C14.41 19.3341 14.5993 19.1448 14.5993 18.9113C14.5993 18.6778 14.41 18.4885 14.1765 18.4885Z" fill="#878787"/>
<path d="M15.5294 16.6848H10.1181C9.88463 16.6848 9.69531 16.8741 9.69531 17.1076C9.69531 17.3411 9.88458 17.5304 10.1181 17.5304H15.5294C15.7628 17.5304 15.9521 17.3411 15.9521 17.1076C15.9521 16.8741 15.7629 16.6848 15.5294 16.6848Z" fill="#878787"/>
</svg>
