<svg width="28" height="28" viewBox="0 0 28 28" fill="none" xmlns="http://www.w3.org/2000/svg">
<path d="M14 0C21.7324 0 28 6.2685 28 14C28 21.7316 21.7324 28 14 28C6.26753 28 0 21.7315 0 14C0 6.26859 6.26763 0 14 0Z" fill="#0E76A8"/>
<path d="M7.88903 19.236H10.5106V10.4982H7.88903V19.236ZM18.1021 10.1955C16.8298 10.1955 15.6914 10.6601 14.8839 11.6857V10.4694H12.2527V19.2361H14.8839V14.4953C14.8839 13.4934 15.8018 12.516 16.9515 12.516C18.1012 12.516 18.3847 13.4934 18.3847 14.4708V19.2352H21.0063V14.2757C21.0062 10.8307 19.3752 10.1955 18.1021 10.1955ZM9.18754 9.62498C9.91205 9.62498 10.5001 9.03696 10.5001 8.31244C10.5001 7.58793 9.91205 7 9.18754 7C8.46303 7 7.875 7.58803 7.875 8.31254C7.875 9.03705 8.46303 9.62498 9.18754 9.62498Z" fill="white"/>
</svg>
