<svg width="610" height="454" viewBox="0 0 610 454" fill="none" xmlns="http://www.w3.org/2000/svg">
<path d="M0 399.277H610V398.972H0V399.277Z" fill="#E7E8E5"/>
<path d="M522.431 418.584H548.879V418.888H522.431V418.584Z" fill="#E7E8E5"/>
<path d="M378.881 412.566H420.494V412.262H378.881V412.566Z" fill="#E7E8E5"/>
<path d="M483.835 407.268H538.155V407.573H483.835V407.268Z" fill="#E7E8E5"/>
<path d="M211.077 413.716H197.49V413.412H211.077V413.716Z" fill="#E7E8E5"/>
<path d="M139.794 413.716H186.627V413.412H139.794V413.716Z" fill="#E7E8E5"/>
<path d="M114.682 408.572H80.894V408.268H114.682V408.572Z" fill="#E7E8E5"/>
<path d="M53.5758 0.305725C49.9045 0.305725 46.9173 3.2897 46.9173 6.95474V337.676C46.9173 341.343 49.9045 344.326 53.5758 344.326H289.157C292.827 344.326 295.814 341.343 295.814 337.676V6.95474C295.814 3.2897 292.827 0.305725 289.157 0.305725H53.5758ZM289.157 344.631H53.5758C49.7362 344.631 46.6123 341.512 46.6123 337.676V6.95474C46.6123 3.12155 49.7362 0.00109863 53.5758 0.00109863H289.157C292.995 0.00109863 296.119 3.12155 296.119 6.95474V337.676C296.119 341.512 292.995 344.631 289.157 344.631Z" fill="#E7E8E5"/>
<path d="M317.459 0.305725C313.788 0.305725 310.801 3.2897 310.801 6.95474V337.676C310.801 341.343 313.788 344.326 317.459 344.326H553.039C556.71 344.326 559.698 341.343 559.698 337.676V6.95474C559.698 3.2897 556.71 0.305725 553.039 0.305725H317.459ZM553.039 344.631H317.459C313.619 344.631 310.496 341.512 310.496 337.676V6.95474C310.496 3.12155 313.619 0.00109863 317.459 0.00109863H553.039C556.879 0.00109863 560.003 3.12155 560.003 6.95474V337.676C560.003 341.512 556.879 344.631 553.039 344.631Z" fill="#E7E8E5"/>
<path d="M155.277 229.672C120.167 228.469 92.6751 199.064 93.8775 163.999C95.0822 128.893 124.525 101.438 159.634 102.638C194.744 103.84 222.238 133.244 221.032 168.35C219.829 203.416 190.386 230.872 155.277 229.672ZM263.609 177.801L264.158 161.791L254.315 158.579C253.91 153.108 252.995 147.706 251.691 142.501L260.033 136.357L254.366 121.318L244.048 122.148C241.588 117.284 238.698 112.659 235.457 108.319L240.804 99.4083L229.813 87.698L220.588 92.4157C216.433 88.8896 212.052 85.6937 207.363 82.8693L208.858 72.6431L194.22 66.0074L187.514 73.8578C182.405 72.202 177.111 70.9641 171.634 70.1428L169.139 60.1163L153.066 59.5668L149.892 69.3971C144.37 69.8431 139.004 70.7179 133.792 72.0192L127.597 63.7278L112.54 69.3472L113.372 79.6539C108.502 82.1505 103.871 85.0369 99.5247 88.2731L90.6454 82.9364L78.8777 93.8681L83.6004 103.122C80.0715 107.231 76.8709 111.649 74.0835 116.332L63.8455 114.798L57.1612 129.413L65.0622 136.114C63.4056 141.218 62.1209 146.546 61.3421 151.975L51.2604 154.505L50.7109 170.517L60.5954 173.731C60.999 179.244 61.9169 184.605 63.2202 189.809L54.8789 195.952L60.5457 210.994L70.8647 210.16C73.3244 215.023 76.2147 219.649 79.4539 223.991L74.1077 232.9L85.0987 244.611L94.3231 239.892C98.4372 243.418 102.859 246.616 107.548 249.44L106.011 259.664L120.648 266.298L127.397 258.45C132.507 260.106 137.8 261.345 143.278 262.166L145.772 272.19L161.845 272.741L165.021 262.91C170.541 262.465 175.907 261.591 181.119 260.289L187.271 268.578L202.328 262.96L201.539 252.657C206.41 250.159 210.999 247.27 215.386 244.035L224.266 249.374L236.033 238.44L231.312 229.186C234.84 225.076 238.041 220.659 240.828 215.976L251.066 217.511L257.751 202.893L249.849 196.194C251.507 191.093 252.789 185.806 253.568 180.334L263.609 177.801Z" fill="#E7E8E5"/>
<path d="M509.156 101.544C506.182 98.363 506.352 93.3747 509.538 90.4042C512.728 87.4288 517.723 87.6006 520.697 90.7819C523.673 93.9645 523.501 98.9515 520.312 101.927C517.126 104.897 512.13 104.727 509.156 101.544ZM537.967 124.854L542.011 121.083L540.395 117.904C541.632 116.471 542.728 114.931 543.681 113.345L547.215 113.877L549.505 108.831L546.786 106.519C547.374 104.737 547.798 102.904 548.068 101.057L551.547 100.185L551.727 94.6529L548.325 93.5575C548.173 91.686 547.885 89.8401 547.431 88.0088L550.293 85.8789L548.344 80.6969L544.791 80.9772C543.949 79.3299 542.961 77.7374 541.826 76.2034L543.666 73.1524L539.88 69.1024L536.706 70.7277C535.251 69.4922 533.729 68.3981 532.141 67.4465L532.654 63.9167L527.611 61.6188L525.298 64.3346C523.5 63.7583 521.666 63.3343 519.816 63.0638L518.954 59.5998L513.415 59.4L512.307 62.8067C510.443 62.9505 508.585 63.2478 506.761 63.7108L504.64 60.8438L499.441 62.7799L499.731 66.3377C498.082 67.1785 496.468 68.1654 494.951 69.2997L491.876 67.4611L487.833 71.2322L489.458 74.4232C488.211 75.8646 487.125 77.3962 486.172 78.9826L482.638 78.4477L480.348 83.4969L483.067 85.8058C482.481 87.5908 482.055 89.4234 481.785 91.2705L478.307 92.1405L478.126 97.6746L481.529 98.7687C481.671 100.63 481.968 102.487 482.422 104.319L479.551 106.436L481.501 111.62L485.062 111.349C485.904 112.998 486.892 114.589 488.028 116.122L486.188 119.174L489.973 123.223L493.148 121.598C494.603 122.835 496.124 123.928 497.714 124.88L497.189 128.4L502.234 130.697L504.557 127.992C506.354 128.569 508.179 128.982 510.038 129.261L510.899 132.726L516.438 132.925L517.547 129.518C519.41 129.377 521.269 129.08 523.092 128.615L525.214 131.484L530.413 129.548L530.122 125.988C531.771 125.148 533.375 124.172 534.902 123.028L537.967 124.854Z" fill="#E7E8E5"/>
<path d="M306.875 329.92C290.217 329.35 277.205 315.383 277.775 298.794C278.344 282.157 292.282 269.16 308.939 269.729C325.599 270.299 338.612 284.219 338.041 300.855C337.473 317.445 323.533 330.49 306.875 329.92ZM390.387 289.236L377.771 280.535L377.763 280.505C376.516 275.929 374.794 271.522 372.689 267.381L375.922 254.712L357.622 235.138L344.74 237.493C340.752 235.116 336.47 233.101 331.986 231.545L331.955 231.535L324.122 218.364L297.326 217.446L288.613 230.047L288.563 230.06C283.984 231.305 279.578 233.022 275.436 235.12L262.756 231.892L243.158 250.17L245.512 263.008L245.504 263.021C243.074 267.049 241.104 271.327 239.546 275.806L226.36 283.624L225.441 310.388L238.07 319.096C239.315 323.706 240.984 328.102 243.129 332.277L243.131 332.282L239.908 344.914L258.208 364.484L271.01 362.145C275.05 364.53 279.337 366.55 283.876 368.107L283.887 368.11L291.706 381.262L318.503 382.18L327.21 369.588C331.843 368.343 336.256 366.625 340.448 364.521L340.452 364.519L353.074 367.731L372.672 349.456L370.318 336.614C372.748 332.584 374.719 328.305 376.277 323.826L376.279 323.824L389.469 316L390.387 289.236Z" fill="#E7E8E5"/>
<path d="M410.762 112.302C392.831 112.302 377.944 126.551 377.326 144.585C376.694 163.005 391.185 178.504 409.63 179.136C418.566 179.435 427.089 176.251 433.625 170.148C440.156 164.051 443.92 155.785 444.227 146.875C444.857 128.453 430.366 112.953 411.922 112.321C411.534 112.308 411.146 112.302 410.762 112.302ZM410.808 184.302C410.357 184.302 409.907 184.294 409.453 184.279C388.169 183.551 371.446 165.664 372.176 144.409C372.905 123.153 390.843 106.457 412.098 107.178C433.382 107.907 450.105 125.793 449.375 147.05C449.023 157.334 444.678 166.873 437.143 173.907C429.932 180.639 420.625 184.302 410.808 184.302ZM429.734 91.888H429.747H429.734ZM399.499 207.41L417.81 208.037L423.875 199.267C424.221 198.765 424.735 198.403 425.324 198.245C428.697 197.338 432.045 196.058 435.273 194.436L435.29 194.428C435.828 194.163 436.455 194.082 437.069 194.241L445.657 196.425L459.047 183.937L457.445 175.197C457.332 174.581 457.449 173.943 457.772 173.406C459.539 170.478 461.037 167.266 462.227 163.861C462.422 163.256 462.835 162.748 463.373 162.432L472.551 156.988L473.18 138.7L464.391 132.638C463.931 132.322 463.588 131.864 463.411 131.336L463.351 131.13C462.433 127.77 461.155 124.468 459.552 121.316C459.269 120.759 459.2 120.119 459.353 119.515L461.554 110.891L449.049 97.5147L440.279 99.1182C439.664 99.2315 439.031 99.1158 438.495 98.7965C435.445 96.9786 432.224 95.4775 428.923 94.3298C428.736 94.2664 428.547 94.1799 428.385 94.08C428.029 93.8619 427.732 93.5609 427.52 93.2027L422.064 84.0279L403.752 83.4016L397.684 92.1792C397.323 92.7019 396.781 93.0699 396.167 93.2173C392.779 94.1446 389.484 95.4166 386.341 97.0103C385.784 97.2918 385.142 97.3637 384.539 97.2089L375.908 95.0109L362.516 107.501L364.118 116.241C364.218 116.789 364.137 117.356 363.887 117.854L363.771 118.061C362.001 121 360.5 124.222 359.313 127.637C359.113 128.209 358.717 128.696 358.195 129.005L349.011 134.451L348.383 152.739L357.18 158.806C357.681 159.152 358.043 159.665 358.202 160.252C359.15 163.756 360.427 167.082 361.996 170.142C362.086 170.317 362.157 170.502 362.205 170.695C362.309 171.108 362.309 171.542 362.202 171.954L360.009 180.548L372.514 193.922L381.222 192.331C381.835 192.22 382.464 192.333 382.997 192.647C386.102 194.481 389.339 195.982 392.619 197.113C393.212 197.301 393.726 197.7 394.053 198.251L399.499 207.41ZM419.129 213.228H419.041L397.914 212.505C397.037 212.475 396.236 212.001 395.788 211.248L390.099 201.68C387.075 200.584 384.094 199.203 381.215 197.564L372.056 199.237C371.191 199.4 370.309 199.104 369.71 198.462L355.283 183.033C354.684 182.392 354.453 181.492 354.669 180.641L356.972 171.612C355.573 168.754 354.402 165.699 353.484 162.511L344.296 156.174C343.574 155.677 343.156 154.846 343.185 153.97L343.91 132.869C343.939 131.994 344.414 131.192 345.169 130.745L354.765 125.054C355.904 121.943 357.282 118.98 358.877 116.223L357.193 107.044C357.036 106.183 357.328 105.298 357.969 104.701L373.42 90.2906C374.062 89.6912 374.965 89.4621 375.815 89.6778L384.885 91.9879C387.82 90.5624 390.869 89.3878 393.974 88.4898L400.313 79.3199C400.812 78.5986 401.63 78.1526 402.521 78.2111L423.648 78.9349C424.525 78.9641 425.326 79.4381 425.774 80.1923L431.474 89.7765C434.502 90.884 437.461 92.2621 440.291 93.885L449.507 92.2C450.372 92.0428 451.254 92.334 451.854 92.9736L466.281 108.406C466.88 109.048 467.11 109.949 466.894 110.798L464.582 119.86C466.011 122.792 467.186 125.836 468.085 128.933L477.266 135.264C477.988 135.761 478.406 136.594 478.377 137.47L477.653 158.57C477.623 159.446 477.148 160.247 476.393 160.694L466.793 166.388C465.656 169.498 464.277 172.46 462.687 175.213L464.369 184.395C464.528 185.256 464.235 186.141 463.593 186.738L448.143 201.146C447.501 201.746 446.601 201.976 445.748 201.758L436.719 199.461C433.742 200.895 430.677 202.068 427.583 202.958L421.249 212.118C420.767 212.815 419.974 213.228 419.129 213.228Z" fill="#E7E8E5"/>
<path d="M467.795 61.375L459.043 59.0271L456.693 50.2873L460.12 46.8659L463.735 54.3422L471.222 57.9524L467.795 61.375Z" fill="#DADBD8"/>
<path d="M468.34 55.5239C469.933 53.9314 469.933 51.3362 468.338 49.7437C466.745 48.1524 464.158 48.1634 462.563 49.7546L466.916 43.2336L472.755 46.181L474.035 52.3072L468.34 55.5239Z" fill="#DADBD8"/>
<path d="M471.075 52.7924C472.669 51.1987 472.669 48.6034 471.075 47.0109C469.48 45.4197 466.894 45.4319 465.299 47.0231C463.705 48.6156 463.705 51.1877 465.299 52.7802C466.894 54.3715 469.48 54.3837 471.075 52.7924ZM459.43 47.5556L465.843 41.1503L474.594 43.497L476.944 52.2368L470.532 58.6433L461.779 56.2954L459.43 47.5556Z" fill="#EDEDEB"/>
<path d="M110.07 294.564L114.766 293.304L116.027 288.615L114.188 286.779L112.248 290.79L108.231 292.729L110.07 294.564Z" fill="#DADBD8"/>
<path d="M109.778 291.425C108.922 290.569 108.922 289.178 109.778 288.322C110.633 287.468 112.021 287.474 112.877 288.329L110.541 284.829L107.408 286.411L106.722 289.698L109.778 291.425Z" fill="#DADBD8"/>
<path d="M108.309 289.958C107.454 289.104 107.454 287.711 108.31 286.857C109.165 286.003 110.553 286.009 111.409 286.863C112.264 287.717 112.264 289.098 111.409 289.952C110.553 290.806 109.165 290.812 108.309 289.958ZM114.559 287.147L111.117 283.711L106.421 284.97L105.16 289.661L108.601 293.098L113.297 291.838L114.559 287.147Z" fill="#EDEDEB"/>
<path d="M93.1622 37.4181L97.0599 41.3122C98.0746 42.3259 99.7354 42.3259 100.75 41.3122C101.765 40.2985 101.765 38.639 100.75 37.6252L96.8527 33.7336C95.8376 32.7198 94.1767 32.7198 93.1622 33.7336C92.1471 34.7473 92.1471 36.4044 93.1622 37.4181Z" fill="#EDEDEB"/>
<path d="M90.4163 27.7233C93.4201 26.6474 96.676 28.0559 97.6887 30.8717C98.7013 33.6875 97.0873 36.8432 94.0835 37.9203C91.0802 38.9974 87.8243 37.5889 86.8116 34.7743C85.799 31.9573 87.413 28.8016 90.4163 27.7233Z" fill="#DADBD8"/>
<path d="M86.1685 34.1174L86.7337 35.688L98.3322 31.5283L97.767 29.9577L86.1685 34.1174Z" fill="#EDEDEB"/>
<path d="M541.544 440.204C541.544 447.824 435.641 454 305 454C174.36 454 68.4551 447.824 68.4551 440.204C68.4551 432.584 174.36 426.406 305 426.406C435.641 426.406 541.544 432.584 541.544 440.204Z" fill="#F3F2F1"/>
<path d="M115.973 77.7811C116.728 81.1001 117.888 83.3445 119.453 84.513C121.017 85.6839 122.862 86.025 124.988 85.5413C127.173 85.0466 128.703 83.9537 129.576 82.2613C130.451 80.5701 130.469 77.8847 129.632 74.2087C128.927 71.1151 127.788 68.995 126.214 67.8509C124.639 66.708 122.782 66.379 120.642 66.8652C118.591 67.3306 117.11 68.4309 116.198 70.1611C115.286 71.8937 115.21 74.4329 115.973 77.7811ZM105.793 80.045C104.572 74.6802 105.117 70.1635 107.43 66.4924C109.742 62.8237 113.571 60.3831 118.914 59.1696C124.391 57.9268 128.945 58.4361 132.577 60.7012C136.209 62.965 138.627 66.7421 139.831 72.0338C140.706 75.8755 140.776 79.1726 140.041 81.925C139.307 84.6775 137.871 87.0169 135.736 88.9395C133.6 90.8634 130.706 92.2378 127.054 93.0664C123.343 93.9107 120.137 94.018 117.436 93.3893C114.735 92.7606 112.338 91.3398 110.245 89.1259C108.151 86.9145 106.667 83.8867 105.793 80.045Z" fill="#17282F"/>
<path d="M153.838 73.9237C154.32 76.0462 155.108 77.5181 156.2 78.3405C157.292 79.1605 158.489 79.4225 159.792 79.1276C161.108 78.8279 162.075 78.081 162.693 76.8881C163.311 75.6941 163.367 73.9919 162.865 71.7817C162.395 69.7177 161.618 68.2787 160.536 67.4636C159.452 66.6485 158.282 66.3828 157.026 66.668C155.694 66.9701 154.71 67.7329 154.076 68.9537C153.44 70.1734 153.361 71.8317 153.838 73.9237ZM144.683 76.0255C143.856 72.3934 144.403 69.1219 146.322 66.2098C148.239 63.299 151.287 61.369 155.462 60.421C160.237 59.3379 164.158 59.9008 167.228 62.1122C169.694 63.8948 171.299 66.4145 172.04 69.6726C172.874 73.3364 172.342 76.6128 170.442 79.5041C168.543 82.3955 165.445 84.3279 161.149 85.3026C157.319 86.1726 153.999 85.9058 151.192 84.4985C147.74 82.7525 145.571 79.9269 144.683 76.0255Z" fill="#17282F"/>
<path d="M185.677 66.7181C186.105 68.6018 186.82 69.9092 187.82 70.6415C188.821 71.3737 189.927 71.6004 191.14 71.3262C192.203 71.0838 192.993 70.4453 193.513 69.4072C194.031 68.3703 194.053 66.8058 193.577 64.7126C193.138 62.7838 192.442 61.4533 191.488 60.7186C190.534 59.9838 189.517 59.7402 188.44 59.9838C187.272 60.2495 186.404 60.9281 185.833 62.0138C185.262 63.103 185.209 64.6711 185.677 66.7181ZM181.274 89.6953L173.792 56.8257L182.345 54.8835L183.145 58.4023C183.992 56.6563 184.848 55.4086 185.717 54.6605C186.889 53.6565 188.284 52.9693 189.9 52.6026C193.088 51.8788 195.831 52.538 198.128 54.5765C200.427 56.6173 201.984 59.4319 202.801 63.019C203.702 66.9801 203.44 70.2187 202.014 72.736C200.588 75.252 198.423 76.8408 195.52 77.5C194.113 77.8192 192.775 77.8716 191.506 77.656C190.237 77.4403 189.039 76.9676 187.913 76.2329L190.501 87.5996L181.274 89.6953Z" fill="#17282F"/>
<path d="M206.711 67.4366L215.586 64.5258C216.205 65.5163 216.904 66.167 217.683 66.4789C218.462 66.7884 219.413 66.8176 220.536 66.563C221.762 66.2827 222.654 65.8063 223.207 65.1313C223.643 64.6244 223.794 64.0798 223.661 63.4974C223.512 62.8407 223.053 62.4106 222.283 62.2095C221.731 62.0682 220.35 62.0523 218.141 62.1608C214.842 62.3301 212.521 62.318 211.179 62.1291C209.837 61.9366 208.616 61.3798 207.516 60.4513C206.417 59.5241 205.703 58.341 205.376 56.9081C205.02 55.34 205.169 53.8864 205.822 52.5437C206.478 51.2022 207.541 50.0678 209.015 49.1455C210.489 48.2219 212.573 47.4543 215.266 46.8427C218.112 46.1969 220.259 45.9386 221.713 46.0628C223.166 46.1896 224.448 46.6063 225.561 47.3117C226.675 48.0184 227.707 49.0797 228.66 50.4992L220.188 53.3186C219.79 52.6058 219.289 52.1319 218.684 51.8918C217.855 51.5763 216.933 51.5324 215.916 51.7651C214.883 51.9991 214.173 52.3524 213.784 52.8251C213.396 53.2979 213.261 53.7962 213.38 54.3189C213.512 54.9001 213.912 55.273 214.58 55.435C215.246 55.5983 216.608 55.5703 218.669 55.3534C221.785 55.0086 224.154 54.9733 225.774 55.2486C227.396 55.524 228.728 56.1417 229.772 57.097C230.817 58.0534 231.492 59.211 231.802 60.5707C232.115 61.9439 232.004 63.3743 231.469 64.862C230.934 66.3497 229.859 67.6803 228.246 68.8561C226.633 70.0294 224.285 70.9688 221.202 71.6694C216.846 72.6576 213.604 72.7404 211.474 71.9204C209.342 71.0992 207.755 69.6042 206.711 67.4366Z" fill="#17282F"/>
<path d="M236.985 62.7529L246.331 62.7005L246.378 70.953L237.031 71.0066L236.985 62.7529ZM236.496 37.3023L246.509 37.2463L246.553 44.9261L244.706 60.3636L238.513 60.3989L236.54 44.9809L236.496 37.3023Z" fill="#17282F"/>
<path d="M133.307 113.066C133.101 113.256 132.508 114.022 131.658 116.99C130.535 120.905 131.227 124.476 132.545 127.038C132.797 126.51 132.973 125.901 133.094 125.329C134.359 119.347 133.99 113.932 133.307 113.066ZM141.342 116.905C141.026 117.496 140.498 118.713 139.707 121.205C138.659 124.504 138.654 127.156 139.238 129.183L139.351 128.877C140.786 124.688 141.485 118.917 141.342 116.905ZM150.092 122.038C150.088 122.038 149.401 122.043 147.863 124.897C146.098 128.168 145.649 130.861 146.487 133.13C146.589 133.408 146.711 133.678 146.854 133.946C147.505 133.668 148.063 133.215 148.466 132.601C150.174 129.992 150.992 124.635 150.357 122.54C150.226 122.111 150.093 122.038 150.092 122.038ZM156.99 142.105L156.77 142.063C151.279 139.94 147.993 137.865 146.287 135.372C145.047 135.62 143.66 135.456 142.344 134.831C141.065 134.224 139.835 133.163 138.952 131.636C138.127 132.27 137.11 132.444 135.992 132.093C134.753 131.703 133.463 130.661 132.391 129.155C131.709 129.647 131.01 129.721 130.497 129.678C126.87 129.383 121.955 122.172 121.603 114.489C121.587 114.153 121.848 113.868 122.184 113.853C122.514 113.825 122.807 114.097 122.821 114.434C123.156 121.726 127.835 128.24 130.596 128.463C131.044 128.507 131.419 128.367 131.733 128.123C130.075 125.22 129.216 121.078 130.485 116.655C131.534 112.994 132.46 111.562 133.574 111.828C135.675 112.349 135.399 120.322 134.287 125.582C134.034 126.773 133.671 127.63 133.256 128.241C134.218 129.661 135.359 130.616 136.358 130.93C137.25 131.21 137.911 130.973 138.401 130.509C137.442 128.15 137.243 124.936 138.545 120.836C140.256 115.441 140.946 115.293 141.358 115.207C141.648 115.146 141.939 115.241 142.145 115.475C143.272 116.745 141.925 125.127 140.505 129.272C140.321 129.812 140.092 130.282 139.826 130.682C140.583 132.165 141.698 133.175 142.867 133.729C143.804 134.175 144.765 134.336 145.64 134.254C145.53 134.024 145.431 133.79 145.342 133.553C144.376 130.935 144.848 127.916 146.788 124.319C148.075 121.934 149.124 120.821 150.091 120.82H150.092C150.38 120.82 150.915 120.926 151.296 121.627C152.36 123.587 151.589 130.057 149.487 133.267C148.991 134.024 148.307 134.597 147.513 134.971C149.148 137.118 152.251 139.009 157.211 140.929C157.524 141.05 157.68 141.402 157.558 141.716C157.466 141.957 157.234 142.105 156.99 142.105Z" fill="#17282F"/>
<path d="M206.546 192.343C206.614 192.533 206.887 193.034 207.969 194.034C209.783 195.708 211.431 196.453 213.009 196.28C213.139 196.268 213.27 196.248 213.399 196.221C213.312 195.852 213.137 195.51 212.869 195.216C211.153 193.337 207.379 192.148 206.546 192.343ZM202.288 197.52C202.698 197.822 203.286 198.222 204.126 198.747C205.781 199.78 207.257 200.258 208.519 200.358C206.496 199.107 203.852 197.998 202.288 197.52ZM203.372 205.97C201.511 205.97 199.554 205.547 197.807 204.522C197.516 204.351 197.419 203.979 197.589 203.688C197.76 203.397 198.134 203.303 198.425 203.471C202.776 206.022 208.402 204.242 209.56 202.383C209.694 202.165 209.817 201.888 209.739 201.565C208.018 201.748 205.901 201.292 203.479 199.779C200.374 197.842 200.135 197.266 200.155 196.804C200.167 196.531 200.322 196.293 200.571 196.166C201.785 195.551 207.287 198.084 209.58 199.589C209.88 199.786 210.134 200 210.339 200.226C211.353 199.979 212.139 199.456 212.661 198.83C213.018 198.401 213.259 197.932 213.377 197.463L213.133 197.492C211.182 197.69 209.225 196.852 207.142 194.929C205.709 193.607 205.153 192.695 205.338 191.973C205.397 191.744 205.59 191.333 206.214 191.177C207.903 190.758 212.068 192.531 213.771 194.395C214.154 194.814 214.415 195.307 214.553 195.837C216.145 195.091 217.829 193.415 219.822 190.634C220.019 190.359 220.399 190.296 220.674 190.492C220.947 190.687 221.011 191.069 220.815 191.343C218.51 194.558 216.588 196.381 214.658 197.125C214.582 197.983 214.227 198.856 213.598 199.611C212.979 200.351 212.078 200.987 210.937 201.33C211.059 201.878 210.949 202.458 210.595 203.025C209.567 204.68 206.617 205.97 203.372 205.97Z" fill="#17282F"/>
<path d="M123.335 221.751L155.005 166.23L163.841 214.401L123.335 221.751ZM219.529 204.298L200.519 207.746L183.26 113.67L146.583 120.324L86.8164 226.326L93.2339 261.305L169.895 247.397L175.143 276.007L211.821 269.353L206.573 240.744L225.583 237.293L219.529 204.298Z" fill="#3563B7"/>
<path d="M372.625 107.271C371.916 100.772 370.615 94.9966 368.724 89.9474C366.834 84.897 363.992 79.9465 360.196 75.0947C356.402 70.2441 351.235 66.0344 344.697 62.4644C338.158 58.8981 329.528 56.4125 318.807 55.0173C296.49 52.1138 279.093 56.0701 266.613 66.8849C254.131 77.7009 245.919 98.4191 241.971 129.04C240.366 141.493 239.968 153.005 240.78 163.576C241.588 174.145 243.53 182.647 246.608 189.08C250.818 198.12 256.777 205.339 264.48 210.734C272.182 216.129 282.735 219.702 296.139 221.447C320.047 224.556 337.765 219.974 349.293 207.693C360.82 195.414 368.468 174.659 372.235 145.43C373.917 132.391 374.046 119.671 372.625 107.271Z" fill="#3563B7"/>
<path d="M307.154 208.939C304.22 208.838 301.097 208.574 297.873 208.153C286.705 206.702 278.063 203.879 272.188 199.762C266.392 195.702 262.005 190.361 258.778 183.428L258.717 183.302C256.372 178.401 254.84 171.418 254.161 162.555C253.423 152.944 253.8 142.244 255.281 130.75C259.635 96.9739 268.629 82.8815 275.408 77.0087C283.311 70.1611 293.977 67.0651 308.018 67.5464C310.895 67.6438 313.941 67.9009 317.072 68.3079C326.084 69.48 333.214 71.4722 338.264 74.2258C343.155 76.8966 346.976 79.9658 349.621 83.347C352.554 87.0949 354.751 90.8939 356.153 94.6394C357.645 98.6249 358.698 103.363 359.284 108.722C360.583 120.064 360.46 131.816 358.926 143.718C355.543 169.962 349.008 188.401 339.504 198.524C332.454 206.036 321.872 209.442 307.157 208.939H307.154Z" fill="#17282F"/>
<path d="M299.804 122.582C289.684 122.236 281.759 113.761 282.107 103.652C282.453 93.5333 290.941 85.6196 301.061 85.9656C311.181 86.3129 319.106 94.7871 318.758 104.906C318.412 115.014 309.924 122.928 299.804 122.582ZM331.03 107.631L331.189 103.015L328.351 102.09C328.235 100.514 327.97 98.9553 327.595 97.4555L329.999 95.6851L328.367 91.3499L325.391 91.5887C324.682 90.1875 323.849 88.8533 322.916 87.6032L324.457 85.0348L321.288 81.6597L318.63 83.0183C317.432 82.0021 316.169 81.0822 314.818 80.2682L315.248 77.3196L311.029 75.4067L309.097 77.6706C307.623 77.1929 306.098 76.8359 304.519 76.5996L303.8 73.7094L299.167 73.551L298.252 76.3839C296.66 76.5131 295.113 76.7653 293.611 77.1393L291.825 74.75L287.486 76.3693L287.725 79.341C286.322 80.0611 284.986 80.8921 283.734 81.8254L281.175 80.2865L277.782 83.4374L279.143 86.1058C278.126 87.2889 277.204 88.5621 276.401 89.9134L273.45 89.4698L271.523 93.6832L273.8 95.6144C273.323 97.0863 272.952 98.6215 272.727 100.186L269.821 100.916L269.664 105.531L272.513 106.457C272.629 108.046 272.893 109.592 273.269 111.091L270.865 112.864L272.498 117.198L275.472 116.959C276.181 118.36 277.015 119.693 277.949 120.944L276.407 123.513L279.575 126.888L282.235 125.528C283.421 126.544 284.694 127.467 286.046 128.281L285.603 131.228L289.822 133.14L291.768 130.878C293.241 131.355 294.767 131.712 296.345 131.949L297.064 134.838L301.698 134.997L302.613 132.163C304.203 132.035 305.75 131.784 307.252 131.407L309.026 133.796L313.367 132.177L313.139 129.208C314.543 128.488 315.865 127.654 317.131 126.722L319.69 128.261L323.082 125.109L321.722 122.443C322.738 121.258 323.66 119.984 324.464 118.634L327.415 119.078L329.342 114.863L327.064 112.932C327.542 111.461 327.912 109.938 328.136 108.36L331.03 107.631Z" fill="#3563B7"/>
<path d="M329.105 209.377L325.99 209.028L325.645 207.034C325.569 207.017 325.493 207 325.419 206.981C331.141 205.272 335.808 202.462 339.504 198.524C343.351 194.427 346.712 188.967 349.574 182.178L350.183 184.29L348.475 185.372C348.654 186.406 348.745 187.464 348.751 188.534L350.624 189.296L350.29 192.408L348.279 192.752C348.044 193.771 347.738 194.773 347.333 195.77L348.769 197.189L347.262 199.931L345.292 199.494C344.662 200.371 343.978 201.174 343.238 201.919L344.031 203.785L341.579 205.741L339.936 204.572C339.031 205.14 338.086 205.62 337.115 206.03L337.118 208.053L334.118 208.936L333.034 207.216C331.986 207.394 330.926 207.5 329.87 207.506L329.105 209.377Z" fill="#3563B7"/>
<path d="M321.188 207.525L318.442 206.019L318.894 204.036C318.016 203.423 317.212 202.739 316.467 202.002L314.583 202.792L312.625 200.343L313.796 198.687C313.226 197.798 312.746 196.855 312.336 195.885L310.308 195.887L309.426 192.877L311.149 191.796C310.969 190.763 310.863 189.704 310.871 188.649L308.999 187.871L309.333 184.761L311.329 184.43C311.565 183.397 311.884 182.396 312.291 181.397L310.855 179.978L312.361 177.236L314.33 177.674C314.947 176.797 315.644 175.994 316.37 175.248L315.592 173.382L318.028 171.426L319.687 172.596C320.593 172.028 321.537 171.547 322.508 171.139L322.491 169.112L325.506 168.233L326.589 169.952C327.637 169.773 328.682 169.667 329.754 169.661L330.517 167.792L333.632 168.14L333.978 170.132C334.998 170.367 336.016 170.673 337 171.091L338.435 169.644L341.181 171.148L340.728 173.131C341.607 173.745 342.411 174.428 343.157 175.167L345.026 174.389L346.984 176.824L345.827 178.481C346.397 179.369 346.878 180.313 347.286 181.297L349.314 181.281L349.574 182.178C346.712 188.967 343.351 194.427 339.504 198.524C335.808 202.462 331.141 205.272 325.419 206.981C324.475 206.755 323.534 206.465 322.622 206.091L321.188 207.525ZM329.806 183.152C327.887 183.152 326.029 184.169 325.04 185.968C323.593 188.6 324.55 191.91 327.184 193.357C328.014 193.811 328.909 194.027 329.794 194.027C331.72 194.027 333.592 193.003 334.584 191.199C336.029 188.568 335.058 185.27 332.423 183.826C331.591 183.369 330.692 183.152 329.806 183.152Z" fill="#22497D"/>
<path d="M343.502 151.478C338.7 151.313 334.95 147.288 335.113 142.506C335.278 137.711 339.296 133.964 344.096 134.129C348.898 134.292 352.65 138.304 352.485 143.101C352.321 147.882 348.303 151.642 343.502 151.478ZM367.574 139.752L363.937 137.243L363.935 137.234C363.575 135.915 363.078 134.644 362.472 133.451L363.404 129.799L358.13 124.158L354.416 124.837C353.267 124.151 352.032 123.571 350.74 123.121L350.731 123.119L348.474 119.322L340.749 119.058L338.238 122.69L338.223 122.694C336.903 123.053 335.633 123.548 334.44 124.152L330.785 123.221L325.135 128.491L325.815 132.191L325.812 132.195C325.112 133.356 324.543 134.589 324.094 135.879L320.294 138.134L320.029 145.849L323.669 148.357C324.028 149.687 324.509 150.954 325.128 152.158V152.159L324.199 155.8L329.473 161.442L333.164 160.767C334.328 161.454 335.564 162.037 336.873 162.485L336.875 162.486L339.13 166.277L346.853 166.541L349.363 162.913C350.699 162.553 351.97 162.057 353.179 161.451H353.18L356.818 162.377L362.467 157.109L361.789 153.408C362.489 152.247 363.057 151.012 363.506 149.721L367.309 147.465L367.574 139.752Z" fill="white"/>
<path d="M387.904 70.2864C387.587 68.5124 388.771 66.82 390.543 66.5032C392.319 66.1864 394.012 67.3646 394.33 69.1387C394.648 70.9115 393.468 72.6027 391.692 72.9207C389.921 73.2375 388.222 72.0593 387.904 70.2864ZM394.111 78.1892L394.748 76.6601L394.751 76.6576C395.207 76.4212 395.635 76.1398 396.027 75.823L397.442 75.8778L399.101 73.4982L398.559 72.1908C398.72 71.7144 398.838 71.2173 398.9 70.7068L398.901 70.7031L400.119 69.5761L399.607 66.7225L398.074 66.0889L398.071 66.0841C397.836 65.6284 397.554 65.2007 397.237 64.8108L397.292 63.3974L394.909 61.7404L393.603 62.2814L393.601 62.2801C393.119 62.1144 392.62 62.0035 392.11 61.9414L390.983 60.7254L388.126 61.2347L387.489 62.7675C387.029 63.0027 386.601 63.2804 386.207 63.6021L384.795 63.5485L383.136 65.9269L383.675 67.2257C383.514 67.7082 383.397 68.2066 383.335 68.722V68.7232L382.119 69.849L382.63 72.7026L384.162 73.3362C384.399 73.798 384.682 74.2256 384.999 74.6204L385 74.6216L384.947 76.0277L387.328 77.6847L388.635 77.145C389.118 77.3107 389.616 77.4216 390.126 77.4837H390.127L391.255 78.6997L394.111 78.1892Z" fill="#3563B7"/>
<path d="M360.64 70.1064L359.709 69.3206C361.328 67.4052 363.626 64.9781 367.039 63.1931L367.604 64.2738C363.966 66.1745 361.636 68.9307 360.64 70.1064Z" fill="#3563B7"/>
<path d="M370.381 63.1758L369.899 62.0548C374.514 60.081 379.336 59.3109 384.221 59.7642L384.107 60.9778C379.422 60.5318 374.806 61.2799 370.381 63.1758Z" fill="#3563B7"/>
<path d="M368.078 71.605L367.069 70.9202C369.575 67.2442 374.527 64.0434 379.113 63.1357L379.349 64.3297C375.053 65.1826 370.418 68.1739 368.078 71.605Z" fill="#3563B7"/>
<path d="M273.727 155.609C271.509 158.952 270.727 162.958 271.527 166.889C272.326 170.82 274.61 174.204 277.958 176.421C284.87 180.993 294.219 179.102 298.796 172.202C303.376 165.301 301.482 155.961 294.573 151.383C287.665 146.81 278.314 148.705 273.727 155.609ZM286.241 180.133C283.157 180.133 280.041 179.262 277.283 177.437C273.665 175.041 271.195 171.381 270.331 167.131C269.466 162.881 270.312 158.551 272.709 154.936H272.71C277.67 147.473 287.78 145.424 295.246 150.367C302.716 155.316 304.765 165.413 299.814 172.875C296.691 177.583 291.513 180.133 286.241 180.133ZM280.242 184.076L280.414 184.1C281.72 184.484 283.079 184.738 284.453 184.851C284.601 184.863 284.738 184.929 284.841 185.035L287.324 187.591L294.524 186.133L295.817 182.804C295.871 182.666 295.973 182.552 296.104 182.484C297.328 181.848 298.483 181.09 299.538 180.229C299.649 180.138 299.775 180.077 299.934 180.092L304.167 180.156L308.226 174.04L306.513 170.162C306.454 170.03 306.446 169.883 306.486 169.745C306.872 168.416 307.124 167.058 307.236 165.711C307.249 165.563 307.313 165.427 307.419 165.323L309.981 162.842L308.521 155.652L305.194 154.363C305.053 154.309 304.937 154.204 304.87 154.069C304.235 152.85 303.475 151.7 302.611 150.65C302.52 150.538 302.47 150.397 302.472 150.254L302.537 146.021L296.414 141.967L292.539 143.674C292.407 143.73 292.261 143.74 292.123 143.702C290.801 143.318 289.437 143.066 288.069 142.952C287.921 142.939 287.785 142.874 287.682 142.769L285.201 140.215L278.002 141.673L276.712 144.996C276.658 145.134 276.556 145.248 276.424 145.315C275.209 145.948 274.052 146.708 272.987 147.576C272.876 147.666 272.728 147.73 272.591 147.714L268.357 147.649L264.3 153.766L266.01 157.639C266.083 157.805 266.079 157.996 265.998 158.158C265.654 159.375 265.401 160.735 265.287 162.098C265.275 162.244 265.21 162.381 265.104 162.484L262.544 164.964L264.003 172.155L267.329 173.442C267.478 173.499 267.597 173.612 267.663 173.755C268.295 174.963 269.053 176.111 269.912 177.155C270.003 177.267 270.055 177.41 270.052 177.554L269.987 181.784L276.112 185.839L279.995 184.128L280.242 184.076ZM287.119 188.863C286.955 188.863 286.797 188.799 286.681 188.678L284.122 186.045C282.819 185.922 281.531 185.683 280.285 185.331L276.298 187.087C276.109 187.175 275.89 187.151 275.715 187.038L269.036 182.615C268.863 182.501 268.76 182.307 268.763 182.099L268.83 177.756C268.018 176.747 267.294 175.653 266.674 174.494L263.252 173.17C263.059 173.094 262.916 172.926 262.875 172.723L261.283 164.88C261.241 164.676 261.307 164.465 261.456 164.32L264.092 161.767C264.214 160.473 264.454 159.184 264.805 157.93L263.048 153.953C262.964 153.763 262.983 153.543 263.098 153.37L267.525 146.698C267.64 146.525 267.802 146.418 268.044 146.425L272.388 146.492C273.408 145.678 274.506 144.956 275.657 144.342L276.984 140.923C277.06 140.729 277.228 140.587 277.432 140.545L285.285 138.955C285.49 138.915 285.7 138.979 285.845 139.127L288.4 141.758C289.698 141.879 290.99 142.119 292.246 142.47L296.227 140.718C296.416 140.634 296.636 140.654 296.81 140.768L303.49 145.19C303.663 145.304 303.766 145.499 303.762 145.708L303.696 150.051C304.509 151.061 305.231 152.156 305.848 153.311L309.273 154.638C309.468 154.712 309.609 154.88 309.651 155.083L311.243 162.927C311.284 163.13 311.219 163.341 311.07 163.486L308.432 166.041C308.311 167.321 308.072 168.607 307.718 169.872L309.476 173.853C309.561 174.044 309.542 174.264 309.428 174.437L305 181.107C304.886 181.28 304.703 181.366 304.483 181.38L300.136 181.314C299.123 182.12 298.027 182.841 296.871 183.457L295.542 186.883C295.466 187.078 295.296 187.22 295.094 187.261L287.239 188.852L287.119 188.863Z" fill="white"/>
<path d="M422.618 202.236L469.903 159.191L463.417 207.736L422.618 202.236ZM519.508 215.295L500.361 212.714L513.025 117.909L476.082 112.931L386.469 195.328L381.76 230.578L458.977 240.985L455.125 269.816L492.069 274.794L495.919 245.965L515.067 248.545L519.508 215.295Z" fill="#3563B7"/>
<path d="M480.843 273.891L480.732 273.882C480.402 273.821 480.182 273.503 480.243 273.172L508.701 117.298C508.761 116.968 509.081 116.762 509.41 116.809C509.741 116.868 509.961 117.186 509.9 117.518L481.442 273.391C481.389 273.685 481.132 273.891 480.843 273.891Z" fill="#17282F"/>
<path d="M506.094 119.917C506.075 120.468 505.613 120.898 505.06 120.881C504.509 120.861 504.077 120.398 504.095 119.848C504.115 119.297 504.577 118.864 505.129 118.884C505.681 118.903 506.113 119.364 506.094 119.917Z" fill="#17282F"/>
<path d="M502.029 140.996C502.009 141.546 501.547 141.978 500.995 141.959C500.443 141.941 500.011 141.478 500.03 140.927C500.049 140.377 500.512 139.944 501.064 139.964C501.615 139.982 502.047 140.445 502.029 140.996Z" fill="#17282F"/>
<path d="M497.962 162.076C497.944 162.627 497.48 163.058 496.929 163.04C496.378 163.02 495.946 162.558 495.964 162.006C495.983 161.456 496.446 161.024 496.997 161.043C497.55 161.062 497.982 161.525 497.962 162.076Z" fill="#17282F"/>
<path d="M489.968 184.02C489.949 184.571 489.487 185.002 488.934 184.984C488.383 184.964 487.951 184.503 487.969 183.952C487.989 183.401 488.451 182.97 489.003 182.988C489.555 183.007 489.987 183.469 489.968 184.02Z" fill="#17282F"/>
<path d="M489.831 204.236C489.813 204.787 489.351 205.217 488.798 205.2C488.247 205.18 487.815 204.717 487.834 204.167C487.852 203.616 488.315 203.183 488.866 203.203C489.419 203.222 489.851 203.684 489.831 204.236Z" fill="#17282F"/>
<path d="M485.766 225.315C485.747 225.867 485.284 226.297 484.733 226.279C484.181 226.26 483.748 225.797 483.768 225.247C483.786 224.696 484.25 224.265 484.801 224.283C485.353 224.301 485.784 224.764 485.766 225.315Z" fill="#17282F"/>
<path d="M481.7 246.395C481.682 246.946 481.219 247.378 480.668 247.359C480.115 247.341 479.683 246.878 479.702 246.327C479.721 245.775 480.184 245.345 480.735 245.363C481.288 245.381 481.72 245.844 481.7 246.395Z" fill="#17282F"/>
<path d="M477.635 267.475C477.617 268.026 477.153 268.459 476.601 268.439C476.05 268.42 475.618 267.957 475.636 267.406C475.656 266.855 476.118 266.425 476.67 266.442C477.221 266.462 477.654 266.925 477.635 267.475Z" fill="#17282F"/>
<path d="M488.969 184.595C488.687 184.595 488.434 184.4 488.373 184.114C488.302 183.785 488.511 183.462 488.84 183.39L491.871 182.741C492.205 182.675 492.525 182.878 492.596 183.21C492.666 183.537 492.457 183.861 492.127 183.933L489.097 184.583L488.969 184.595Z" fill="#17282F"/>
<path d="M499.084 173.371C499.084 173.371 496.353 180.473 495.435 184.775C494.515 189.079 494.46 198.696 494.46 198.696" fill="#17282F"/>
<path d="M494.46 199.305H494.456C494.119 199.303 493.847 199.029 493.85 198.692C493.852 198.298 493.916 188.963 494.838 184.647C495.757 180.348 498.401 173.444 498.514 173.152C498.634 172.838 498.986 172.682 499.302 172.802C499.617 172.921 499.774 173.275 499.653 173.588C499.625 173.66 496.929 180.696 496.031 184.902C495.136 189.097 495.07 198.605 495.07 198.7C495.067 199.035 494.795 199.305 494.46 199.305Z" fill="#17282F"/>
<path d="M271.391 304.473C273.086 277.178 269.969 227.558 321.343 234.127C376.409 241.166 360.655 305.473 360.655 305.473L271.391 304.473Z" fill="#17282F"/>
<path d="M329.264 265.677C329.264 278.043 319.228 288.065 306.847 288.065C294.465 288.065 284.428 278.043 284.428 265.677C284.428 253.312 294.465 243.288 306.847 243.288C319.228 243.288 329.264 253.312 329.264 265.677Z" fill="white"/>
<path d="M309.791 243.325C299.173 241.512 287.819 249.329 286.7 257.249L328.799 261.115C327.315 252.088 318.216 244.76 309.791 243.325Z" fill="#17282F"/>
<path d="M324.003 265.12C323.701 270.973 320.507 275.568 316.868 275.38C313.229 275.194 310.523 270.297 310.824 264.445C311.124 258.592 314.318 253.997 317.958 254.185C321.597 254.37 324.304 259.267 324.003 265.12Z" fill="#17282F"/>
<path d="M306.847 244.507C295.158 244.507 285.648 254.003 285.648 265.677C285.648 277.351 295.158 286.847 306.847 286.847C318.534 286.847 328.044 277.351 328.044 265.677C328.044 254.003 318.534 244.507 306.847 244.507ZM306.847 289.284C293.812 289.284 283.208 278.695 283.208 265.677C283.208 252.66 293.812 242.07 306.847 242.07C319.88 242.07 330.484 252.66 330.484 265.677C330.484 278.695 319.88 289.284 306.847 289.284Z" fill="#3563B7"/>
<path d="M356.332 294.433L355.111 294.406C355.731 288.018 355.915 278.86 353.689 269.645C353.609 269.319 353.811 268.99 354.138 268.91C354.184 268.899 354.23 268.895 354.275 268.895C354.551 268.895 354.806 269.078 354.873 269.36C357.128 278.681 356.955 287.942 356.332 294.433Z" fill="#57666B"/>
<path d="M350.992 260.509C350.76 260.509 350.539 260.378 350.437 260.154C348.868 256.736 346.922 253.596 344.651 250.824C344.439 250.563 344.477 250.181 344.738 249.967C344.851 249.874 344.988 249.829 345.125 249.829C345.3 249.829 345.476 249.905 345.597 250.053C347.932 252.905 349.934 256.133 351.546 259.647C351.687 259.952 351.552 260.314 351.246 260.453L350.992 260.509Z" fill="#57666B"/>
<path d="M157.057 432.502C156.904 432.502 156.754 432.501 156.603 432.497C153.234 432.403 150.58 429.602 150.672 426.239C150.764 422.876 153.538 420.275 156.937 420.317L157.054 420.318C160.579 420.318 169.058 416.042 186.795 388.116C187.749 386.616 189.31 385.606 191.07 385.35C192.833 385.1 194.614 385.622 195.956 386.788C217.844 405.846 241.039 417.711 241.271 417.828C244.274 419.351 245.472 423.019 243.949 426.018C242.424 429.017 238.753 430.217 235.75 428.693C234.829 428.228 214.555 417.875 193.297 400.491C178.43 422.812 167.397 432.502 157.057 432.502Z" fill="#17282F"/>
<path d="M194.797 385.692C194.625 385.692 194.451 385.681 194.275 385.656C192.274 385.371 190.883 383.519 191.17 381.521C192.038 375.457 190.961 352.734 183.271 335.067C182.569 333.456 183.113 331.576 184.566 330.588C201.278 319.214 236.875 317.854 238.383 317.801C240.392 317.758 242.097 319.31 242.167 321.326C242.238 323.344 240.657 325.036 238.638 325.107C238.307 325.119 207.186 326.311 191.195 335.101C198.007 352.692 199.55 374.622 198.416 382.555C198.155 384.378 196.589 385.692 194.797 385.692Z" fill="#17282F"/>
<path d="M200.946 380.962C198.511 375.227 187.541 375.878 181.099 380.792C177.656 383.418 172.997 391.321 172.507 394.184C172.017 397.048 174.005 399.644 177.416 399.348C181.621 398.984 187.397 392.88 187.397 392.88C183.555 396.643 188.512 399.297 195.909 393.857C200.012 390.838 203.672 387.381 200.946 380.962Z" fill="#3563B7"/>
<path d="M423.007 279.859C423.556 280.064 424.179 280.185 424.76 280.253C430.838 280.972 436.206 280.123 437.009 279.366C436.801 279.178 435.983 278.657 432.947 278.077C428.942 277.315 425.443 278.318 423.007 279.859ZM421.467 286.709L421.783 286.795C426.09 287.849 431.907 288.028 433.901 287.701C433.283 287.44 432.021 287.024 429.465 286.461C426.082 285.716 423.437 285.948 421.467 286.709ZM417.4 294.712C417.736 295.336 418.238 295.85 418.888 296.195C421.64 297.658 427.057 297.993 429.088 297.175C429.504 297.006 429.567 296.868 429.567 296.866C429.567 296.863 429.499 296.182 426.515 294.906C423.096 293.445 420.368 293.24 418.182 294.275C417.914 294.403 417.653 294.548 417.4 294.712ZM410.781 306.083L410.611 306.058C410.288 305.966 410.101 305.627 410.194 305.305C411.819 299.652 413.594 296.197 415.928 294.277C415.571 293.064 415.611 291.67 416.115 290.306C416.605 288.979 417.553 287.661 418.995 286.645C418.289 285.882 418.027 284.884 418.275 283.744C418.552 282.475 419.476 281.1 420.881 279.897C420.33 279.264 420.195 278.572 420.19 278.061C420.159 274.426 426.909 268.891 434.541 267.852C434.875 267.79 435.182 268.038 435.227 268.372C435.272 268.706 435.038 269.013 434.704 269.058C427.461 270.045 421.386 275.283 421.41 278.05C421.413 278.498 421.58 278.859 421.851 279.15C424.599 277.241 428.653 276.013 433.175 276.88C436.921 277.596 438.443 278.385 438.266 279.521C437.935 281.657 429.959 282.098 424.615 281.462C423.404 281.318 422.517 281.033 421.87 280.676C420.541 281.761 419.691 282.98 419.467 284.002C419.269 284.916 419.564 285.552 420.071 285.995C422.337 284.829 425.525 284.342 429.729 285.27C435.264 286.49 435.471 287.164 435.595 287.565C435.684 287.852 435.612 288.146 435.398 288.371C434.232 289.606 425.753 289.021 421.493 287.978C420.939 287.843 420.448 287.657 420.026 287.428C418.613 288.315 417.707 289.515 417.259 290.728C416.901 291.7 416.819 292.669 416.985 293.534C417.204 293.402 417.428 293.284 417.657 293.174C420.181 291.978 423.235 292.178 426.995 293.785C429.49 294.852 430.693 295.795 430.78 296.757C430.807 297.042 430.751 297.585 430.085 298.026C428.225 299.261 421.704 299.074 418.313 297.271C417.514 296.844 416.881 296.217 416.437 295.46C414.442 297.279 412.834 300.536 411.367 305.64C411.29 305.908 411.046 306.083 410.781 306.083Z" fill="#17282F"/>
<path d="M251.964 430.467C252.767 430.211 252.498 429.436 251.6 429.436H235.083C203.63 426.109 181.654 430.569 195.502 431.619C209.349 432.67 194.526 432.45 184.414 436.27C174.302 440.091 259.632 441.054 267.393 436.27C274.551 431.859 240.818 434.035 251.964 430.467Z" fill="#17282F"/>
<path d="M370.232 435.33L226.514 430.571L220.549 291.4L390.265 295.191L370.232 435.33Z" fill="#3563B7"/>
<path d="M271.391 432.666C271.077 432.666 270.81 432.426 270.784 432.107L259.262 292.327C259.235 291.992 259.484 291.699 259.821 291.671C260.165 291.652 260.452 291.892 260.479 292.227L272 432.007C272.027 432.343 271.778 432.637 271.441 432.664L271.391 432.666Z" fill="#17282F"/>
<path d="M370.232 435.33L408.86 429.456L421.027 300.046L390.264 295.191L370.232 435.33Z" fill="#3563B7"/>
<path d="M370.232 435.33L371.741 424.773C371.907 424.768 372.07 424.766 372.229 424.766C376.872 424.766 378.49 426.868 378.579 426.991C378.479 426.853 378.439 426.768 378.439 426.768L388.941 420.567C388.711 420.18 384.366 413.104 373.48 412.605L390.264 295.191L421.027 300.046L416.863 344.326L416.835 344.631L411.725 398.972L411.697 399.277L410.476 412.261L410.448 412.566L408.86 429.456L370.232 435.33Z" fill="#3563B7"/>
<path d="M238.796 403.746L235.253 321.06C234.883 312.431 241.894 305.282 250.542 305.476L357.974 307.875C366.944 308.076 373.724 316.062 372.456 324.933L360.546 408.264C359.466 415.816 352.866 421.344 345.232 421.092L253.255 418.047C245.432 417.787 239.131 411.554 238.796 403.746Z" fill="#17282F"/>
<path d="M250.401 330.85L267.023 331.377L266.886 335.657L256.481 335.327L256.379 338.512L266.032 338.819L265.901 342.907L256.249 342.601L256.123 346.552L266.83 346.894L266.685 351.432L249.763 350.895L250.401 330.85Z" fill="white"/>
<path d="M276.718 339.816L279.332 339.898C279.615 339.907 280.166 339.834 280.984 339.678C281.398 339.609 281.739 339.41 282.01 339.081C282.281 338.752 282.424 338.368 282.437 337.931C282.458 337.284 282.269 336.781 281.869 336.421C281.47 336.062 280.704 335.863 279.571 335.828L276.847 335.74L276.718 339.816ZM270.108 351.541L270.747 331.495L281.083 331.824C283.001 331.885 284.46 332.096 285.463 332.457C286.466 332.816 287.262 333.451 287.855 334.359C288.448 335.268 288.724 336.36 288.682 337.636C288.647 338.749 288.379 339.7 287.878 340.492C287.378 341.284 286.705 341.917 285.857 342.392C285.318 342.694 284.583 342.936 283.654 343.116C284.384 343.387 284.915 343.65 285.244 343.906C285.468 344.078 285.787 344.44 286.203 344.992C286.619 345.544 286.896 345.968 287.032 346.265L289.851 352.169L282.842 351.945L279.723 345.714C279.327 344.909 278.97 344.381 278.649 344.134C278.211 343.81 277.71 343.639 277.144 343.621L276.597 343.603L276.337 351.739L270.108 351.541Z" fill="white"/>
<path d="M298.528 340.508L301.142 340.592C301.425 340.602 301.976 340.527 302.794 340.37C303.208 340.302 303.551 340.102 303.82 339.774C304.091 339.444 304.234 339.061 304.247 338.624C304.268 337.976 304.079 337.473 303.679 337.113C303.28 336.754 302.514 336.556 301.382 336.521L298.657 336.435L298.528 340.508ZM291.918 352.234L292.557 332.189L302.894 332.518C304.811 332.578 306.27 332.789 307.273 333.149C308.276 333.509 309.072 334.144 309.665 335.052C310.258 335.961 310.534 337.054 310.492 338.329C310.457 339.442 310.19 340.394 309.69 341.186C309.188 341.978 308.515 342.61 307.668 343.086C307.128 343.388 306.393 343.628 305.464 343.809C306.194 344.079 306.725 344.342 307.056 344.6C307.278 344.77 307.597 345.132 308.013 345.684C308.429 346.237 308.706 346.661 308.843 346.957L311.661 352.862L304.652 352.639L301.533 346.408C301.139 345.602 300.78 345.075 300.459 344.827C300.022 344.503 299.52 344.332 298.955 344.313L298.407 344.296L298.147 352.433L291.918 352.234Z" fill="white"/>
<path d="M318.907 343.1C318.842 345.125 319.173 346.591 319.897 347.498C320.622 348.406 321.632 348.881 322.929 348.923C324.261 348.965 325.307 348.564 326.065 347.721C326.822 346.879 327.237 345.336 327.308 343.093C327.369 341.208 327.031 339.816 326.298 338.922C325.562 338.026 324.543 337.558 323.238 337.516C321.986 337.477 320.969 337.887 320.183 338.748C319.397 339.608 318.971 341.059 318.907 343.1ZM312.706 342.877C312.81 339.603 313.804 337.085 315.687 335.32C317.571 333.554 320.141 332.723 323.4 332.827C326.742 332.933 329.287 333.91 331.037 335.759C332.787 337.608 333.61 340.146 333.508 343.373C333.433 345.716 332.977 347.624 332.14 349.098C331.302 350.573 330.125 351.703 328.606 352.49C327.087 353.277 325.214 353.634 322.986 353.564C320.723 353.492 318.862 353.073 317.401 352.305C315.94 351.537 314.775 350.36 313.902 348.773C313.03 347.184 312.631 345.219 312.706 342.877Z" fill="white"/>
<path d="M343.216 341.928L345.831 342.013C346.114 342.021 346.664 341.947 347.483 341.791C347.896 341.722 348.238 341.523 348.509 341.194C348.78 340.864 348.922 340.481 348.936 340.045C348.956 339.396 348.767 338.893 348.367 338.534C347.967 338.175 347.202 337.976 346.07 337.941L343.346 337.854L343.216 341.928ZM336.606 353.655L337.245 333.608L347.583 333.937C349.499 333.999 350.958 334.209 351.961 334.569C352.964 334.929 353.762 335.565 354.354 336.472C354.947 337.381 355.222 338.475 355.181 339.749C355.146 340.861 354.878 341.814 354.377 342.605C353.877 343.398 353.202 344.03 352.355 344.506C351.816 344.807 351.082 345.049 350.152 345.229C350.883 345.499 351.414 345.763 351.743 346.019C351.966 346.192 352.286 346.552 352.702 347.106C353.118 347.657 353.395 348.081 353.531 348.378L356.35 354.282L349.341 354.059L346.221 347.827C345.826 347.022 345.469 346.495 345.148 346.247C344.711 345.924 344.208 345.752 343.642 345.734L343.096 345.717L342.836 353.853L336.606 353.655Z" fill="white"/>
<path d="M346.479 387.714C346.045 387.714 345.613 387.539 345.296 387.194L334.852 375.778L323.583 386.06C322.93 386.658 321.918 386.61 321.32 385.959L310.877 374.544L299.608 384.826C298.955 385.423 297.941 385.377 297.346 384.725L286.901 373.31L275.632 383.594C275.32 383.881 274.898 384.03 274.481 384.012C274.056 383.993 273.657 383.806 273.37 383.493L262.926 372.078L251.657 382.36C251.005 382.956 249.992 382.909 249.395 382.259C248.798 381.607 248.845 380.595 249.497 380L261.948 368.637C262.6 368.038 263.614 368.086 264.211 368.738L274.654 380.155L285.923 369.87C286.237 369.583 286.656 369.436 287.076 369.452C287.499 369.472 287.899 369.658 288.186 369.971L298.629 381.387L309.898 371.104C310.55 370.507 311.564 370.553 312.162 371.205L322.605 382.621L333.874 372.337C334.527 371.739 335.539 371.785 336.136 372.439L347.661 385.035C348.258 385.688 348.211 386.7 347.559 387.295C347.251 387.575 346.864 387.714 346.479 387.714Z" fill="white"/>
<path d="M153.415 438.289L145.78 434.651L138.969 401.55L142.665 397.484L153.415 438.289Z" fill="#3563B7"/>
<path d="M153.415 438.289L163.547 432.378L154.861 405.104L142.666 397.484L153.415 438.289Z" fill="#3563B7"/>
<path d="M153.415 438.289L142.666 397.484L154.861 405.104L163.547 432.378L153.415 438.289Z" fill="#3563B7"/>
<path d="M319.578 444.307C319.29 444.307 319.008 444.301 318.735 444.294C315.367 444.201 312.711 441.401 312.804 438.036C312.897 434.676 315.678 432.032 319.069 432.115C328.466 432.422 348.356 426.656 359.718 415.642C360.421 414.961 361.276 414.458 362.214 414.177C381.475 408.404 388.645 420.067 388.941 420.568L378.439 426.768C378.439 426.768 378.479 426.854 378.579 426.991C378.463 426.831 375.735 423.289 367.049 425.48C352.791 438.479 330.904 444.307 319.578 444.307Z" fill="#17282F"/>
<path d="M318.902 452.404L296.682 451.006L294.929 410.096L324.791 411.21L318.902 452.404Z" fill="#3563B7"/>
<path d="M318.902 452.404L324.095 447.243L327.315 421.734L324.791 411.21L318.902 452.404Z" fill="#3563B7"/>
<path d="M318.902 452.404L324.791 411.21L327.315 421.734L324.095 447.243L318.902 452.404Z" fill="#3563B7"/>
<path d="M447.63 436.912C446.859 436.912 446.081 436.669 445.418 436.167C432.738 426.541 415.595 409.451 409.017 392.965C408.922 392.725 408.851 392.474 408.808 392.218C405.601 373.17 402.536 333.074 402.407 331.376C402.255 329.364 403.765 327.608 405.779 327.456C407.79 327.307 409.554 328.811 409.706 330.824C409.738 331.233 412.832 371.723 415.963 390.616C422.522 406.647 440.31 423.106 449.848 430.347C451.457 431.568 451.771 433.862 450.547 435.469C449.827 436.414 448.735 436.912 447.63 436.912Z" fill="#17282F"/>
<path d="M464.549 438.759C461.719 438.759 458.511 437.477 455.015 434.951C453.378 433.767 453.01 431.482 454.196 429.847C455.382 428.212 457.67 427.845 459.307 429.029C462.329 431.213 463.979 431.448 464.549 431.448C466.571 431.448 468.209 433.085 468.209 435.103C468.209 437.122 466.571 438.759 464.549 438.759Z" fill="#17282F"/>
<path d="M456.041 434.847C459.957 423.228 476.012 425.525 481.541 427.251C487.07 428.976 492.052 431.146 495.046 433.102C498.041 435.057 498.089 438.324 494.096 440.189C489.172 442.49 476.819 440.447 476.819 440.447C483.214 443.243 476.807 447.725 465.589 443.323C461.937 441.89 454.659 439.103 456.041 434.847Z" fill="#3563B7"/>
<path d="M417.072 336.391C415.617 346.262 407.434 353.542 400.775 352.564C394.116 351.586 393.84 342.77 395.292 332.899C396.746 323.027 399.379 315.838 406.037 316.817C412.695 317.794 418.525 326.519 417.072 336.391Z" fill="#17282F"/>
<path d="M257.047 295.985C257.047 296.537 256.6 296.984 256.048 296.984C255.495 296.984 255.048 296.537 255.048 295.985C255.048 295.434 255.495 294.987 256.048 294.987C256.6 294.987 257.047 295.434 257.047 295.985Z" fill="#17282F"/>
<path d="M266.214 303.178C266.214 303.73 265.767 304.177 265.215 304.177C264.662 304.177 264.214 303.73 264.214 303.178C264.214 302.627 264.662 302.179 265.215 302.179C265.767 302.179 266.214 302.627 266.214 303.178Z" fill="#17282F"/>
<path d="M267.333 421.25C267.333 421.802 266.885 422.248 266.333 422.248C265.781 422.248 265.333 421.802 265.333 421.25C265.333 420.699 265.781 420.252 266.333 420.252C266.885 420.252 267.333 420.699 267.333 421.25Z" fill="#17282F"/>
<path d="M276.5 428.442C276.5 428.994 276.052 429.441 275.499 429.441C274.948 429.441 274.5 428.994 274.5 428.442C274.5 427.89 274.948 427.443 275.499 427.443C276.052 427.443 276.5 427.89 276.5 428.442Z" fill="#17282F"/>
<path d="M114.079 428.218H114.077C114.074 428.219 113.619 428.45 113.442 430.484C113.264 432.535 113.637 433.924 114.582 434.729C114.796 434.914 115.041 435.067 115.313 435.191C115.657 434.811 115.893 434.383 115.976 433.939C116.302 432.173 115.46 429.588 114.516 428.541C114.271 428.269 114.113 428.218 114.079 428.218ZM106.404 429.275C106.397 429.734 106.439 430.504 106.621 431.784C106.868 433.523 107.51 434.86 108.473 435.71C108.188 433.263 107.101 430.431 106.404 429.275ZM99.6071 430.338C99.537 430.524 99.4088 431.141 99.7105 432.828C100.111 435.071 101.565 436.559 103.174 437.347C103.167 437.087 103.119 436.799 103.033 436.484C102.075 433.002 100.253 430.601 99.6071 430.338ZM100.662 440.423C97.759 440.423 93.833 438.666 91.7157 435.611C91.5236 435.336 91.5928 434.956 91.8696 434.765C92.147 434.572 92.5263 434.642 92.7183 434.919C94.9953 438.202 100.013 439.953 102.241 438.916C102.475 438.806 102.665 438.668 102.811 438.503C100.82 437.584 99 435.786 98.5095 433.043C98.2331 431.498 98.0135 429.411 99.2892 429.123C101.039 428.731 103.328 432.956 104.209 436.16C104.372 436.753 104.423 437.301 104.367 437.796C105.139 438.007 105.897 438.062 106.547 437.968C107.075 437.891 107.826 437.674 108.224 437.06C106.742 436.059 105.745 434.296 105.413 431.955C104.939 428.624 105.294 428.043 105.664 427.759C105.904 427.573 106.209 427.539 106.503 427.664C107.808 428.218 109.389 432.944 109.691 435.619C109.724 435.914 109.724 436.196 109.694 436.463C110.193 436.662 110.743 436.77 111.339 436.783C112.397 436.843 113.443 436.507 114.279 436.016C114.106 435.908 113.942 435.788 113.789 435.656C112.523 434.577 112.012 432.85 112.227 430.38C112.392 428.47 112.828 427.426 113.597 427.098C113.866 426.979 114.415 426.867 115.07 427.39C116.387 428.441 117.618 431.773 117.175 434.16C117.084 434.654 116.87 435.128 116.562 435.563C118.801 435.948 121.951 435.32 124.668 434.65C124.994 434.571 125.326 434.768 125.406 435.095C125.487 435.423 125.288 435.752 124.961 435.833C121.655 436.65 118.095 437.314 115.582 436.585C114.464 437.472 112.891 438.012 111.314 438.001C110.595 437.986 109.926 437.858 109.314 437.625C108.833 438.443 107.939 438.996 106.723 439.174C105.913 439.295 104.958 439.217 103.993 438.941C103.718 439.398 103.304 439.764 102.757 440.02C102.173 440.291 101.456 440.422 100.662 440.423Z" fill="#17282F"/>
<path d="M279.225 449.633L282.531 443.907L279.225 438.181H275.686L277.685 443.908L275.686 449.633H279.225Z" fill="#17282F"/>
<path d="M275.919 446.892C274.272 446.892 272.93 445.552 272.93 443.907C272.93 442.262 274.272 440.934 275.919 440.934L270.298 439.81L268.806 444.344L271.314 448.169L275.919 446.892Z" fill="#17282F"/>
<path d="M273.093 446.892C271.446 446.892 270.104 445.552 270.104 443.907C270.104 442.262 271.446 440.934 273.093 440.934C274.74 440.934 276.07 442.262 276.07 443.907C276.07 445.552 274.74 446.892 273.093 446.892ZM276.4 438.181H269.775L266.469 443.907L269.775 449.633H276.4L279.706 443.907L276.4 438.181Z" fill="#3563B7"/>
<path d="M509.825 437.798L507.37 433.546L509.825 429.294H512.454L510.969 433.546L512.454 437.798H509.825Z" fill="#3563B7"/>
<path d="M512.28 435.763C513.504 435.763 514.501 434.768 514.501 433.546C514.501 432.325 513.504 431.337 512.28 431.337L516.455 430.504L517.563 433.87L515.7 436.711L512.28 435.763Z" fill="#3563B7"/>
<path d="M514.38 435.762C515.602 435.762 516.599 434.768 516.599 433.546C516.599 432.325 515.602 431.337 514.38 431.337C513.156 431.337 512.168 432.325 512.168 433.546C512.168 434.768 513.156 435.762 514.38 435.762ZM511.924 429.294H516.844L519.299 433.546L516.844 437.798H511.924L509.468 433.546L511.924 429.294Z" fill="#17282F"/>
<path d="M418.397 443.445H423.909C425.343 443.445 426.518 442.271 426.518 440.837C426.518 439.404 425.343 438.232 423.909 438.232H418.397C416.961 438.232 415.787 439.404 415.787 440.837C415.787 442.271 416.961 443.445 418.397 443.445Z" fill="#17282F"/>
<path d="M409.591 438.528C410.951 435.644 414.251 434.342 416.961 435.617C419.67 436.894 420.763 440.264 419.403 443.149C418.041 446.031 414.741 447.334 412.032 446.057C409.322 444.781 408.229 441.411 409.591 438.528Z" fill="#3563B7"/>
<path d="M411.113 446.049L412.625 446.761L417.881 435.628L416.369 434.916L411.113 446.049Z" fill="#17282F"/>
</svg>
