<svg width="20" height="20" viewBox="0 0 20 20" fill="none" xmlns="http://www.w3.org/2000/svg">
<g clip-path="url(#clip0)">
<path d="M18.3333 9.66675H9.66667V18.3334C9.66667 18.5175 9.51742 18.6667 9.33333 18.6667C4.17867 18.6667 0 14.4881 0 9.33341C0 4.17875 4.17867 8.01086e-05 9.33333 8.01086e-05C14.488 8.01086e-05 18.6667 4.17875 18.6667 9.33341C18.6667 9.5175 18.5174 9.66675 18.3333 9.66675ZM9.33333 0.666748C4.54687 0.665623 0.66575 4.54487 0.664583 9.33133C0.6635 13.9897 4.34504 17.8157 9 17.9937V9.33341C9 9.14933 9.14925 9.00008 9.33333 9.00008H17.9937C17.809 4.34925 13.9878 0.672373 9.33333 0.666748Z" fill="#878787"/>
<path d="M10.6668 20C10.4827 20 10.3335 19.8508 10.3335 19.6667V10.6667C10.3335 10.4826 10.4827 10.3333 10.6668 10.3333H19.6668C19.8509 10.3333 20.0002 10.4826 20.0002 10.6667C19.9943 15.8189 15.819 19.9941 10.6668 20ZM11.0002 11V19.327C15.5224 19.147 19.1472 15.5223 19.3272 11H11.0002Z" fill="#878787"/>
</g>
<defs>
<clipPath id="clip0">
<rect width="20" height="20" fill="white" transform="matrix(1 0 0 -1 0 20)"/>
</clipPath>
</defs>
</svg>
