<svg width="25" height="25" viewBox="0 0 25 25" fill="none" xmlns="http://www.w3.org/2000/svg">
<path d="M24.316 11.019C24.2349 10.5111 23.7575 10.1651 23.2496 10.2462C22.7418 10.3272 22.3958 10.8046 22.4768 11.3125C22.4777 11.3181 22.4786 11.3236 22.4796 11.3291C23.4279 16.9115 19.6712 22.2056 14.0888 23.1539C8.50644 24.1022 3.2123 20.3456 2.26399 14.7632C1.31569 9.18077 5.07241 3.88663 10.6547 2.93833C14.0878 2.35516 17.5822 3.55434 19.9337 6.12268L15.8084 7.49712C15.3204 7.6595 15.0565 8.18669 15.2188 8.6747C15.2189 8.67481 15.2189 8.67497 15.219 8.67508C15.3814 9.16309 15.9086 9.42701 16.3966 9.26469C16.3967 9.26463 16.3968 9.26458 16.397 9.26458L21.9842 7.40218C22.3646 7.27548 22.6212 6.91946 22.6212 6.51848V0.931226C22.6212 0.416916 22.2043 0 21.6899 0C21.1756 0 20.7587 0.416916 20.7587 0.931226V4.3329C15.9631 -0.228346 8.37778 -0.038303 3.81653 4.75735C-0.744718 9.553 -0.554729 17.1383 4.24098 21.6996C9.03668 26.2609 16.6219 26.0709 21.1832 21.2751C23.7842 18.5404 24.945 14.7403 24.316 11.019Z" fill="white"/>
</svg>
