<svg width="61" height="61" viewBox="0 0 61 61" fill="none" xmlns="http://www.w3.org/2000/svg">
<g filter="url(#filter0_d)">
<rect x="15" y="15" width="31" height="31" rx="15.5" fill="#3563B7"/>
</g>
<path d="M22.3164 28.6V38.4167C22.3175 39.2907 23.0257 39.999 23.8997 40H35.2997C35.7199 40.0012 36.1231 39.8343 36.4195 39.5364C36.5395 39.4121 36.5378 39.2146 36.4156 39.0925C36.2935 38.9703 36.096 38.9686 35.9717 39.0886C35.7938 39.2673 35.5519 39.3674 35.2997 39.3667H23.8997C23.3751 39.3667 22.9497 38.9413 22.9497 38.4167V28.7438L26.7814 25.3906C27.132 25.0839 27.3297 24.6385 27.322 24.1728C27.3143 23.7071 27.102 23.2684 26.7415 22.9735L25.1031 21.6333H35.2997C35.8244 21.6333 36.2497 22.0587 36.2497 22.5833V27.0167C36.2497 27.1916 36.3915 27.3333 36.5664 27.3333C36.7413 27.3333 36.8831 27.1916 36.8831 27.0167V22.5833C36.882 21.7093 36.1738 21.001 35.2997 21H24.2164C24.0675 21 23.9387 21.1037 23.907 21.2492L22.3237 28.5326C22.3189 28.5547 22.3165 28.5773 22.3164 28.6V28.6ZM24.4159 21.8892L26.3406 23.464C26.5567 23.6409 26.684 23.904 26.6886 24.1833C26.6933 24.4625 26.5748 24.7297 26.3647 24.9137L23.1464 27.7298L24.4159 21.8892Z" fill="white"/>
<path d="M24.2163 29.2334C24.2163 29.0585 24.0746 28.9167 23.8997 28.9167C23.7248 28.9167 23.583 29.0585 23.583 29.2334V29.8667C23.583 30.0416 23.7248 30.1834 23.8997 30.1834C24.0746 30.1834 24.2163 30.0416 24.2163 29.8667V29.2334Z" fill="white"/>
<path d="M23.8997 30.8167C23.7248 30.8167 23.583 30.9584 23.583 31.1333V36.8333C23.583 37.0082 23.7248 37.15 23.8997 37.15C24.0746 37.15 24.2163 37.0082 24.2163 36.8333V31.1333C24.2163 30.9584 24.0746 30.8167 23.8997 30.8167Z" fill="white"/>
<path d="M28.9666 23.8499C29.1415 23.8499 29.2833 23.7081 29.2833 23.5332C29.2833 23.3583 29.1415 23.2166 28.9666 23.2166H28.3333C28.1584 23.2166 28.0166 23.3583 28.0166 23.5332C28.0166 23.7081 28.1584 23.8499 28.3333 23.8499H28.9666Z" fill="white"/>
<path d="M34.666 23.2166H30.2327C30.0578 23.2166 29.916 23.3583 29.916 23.5332C29.916 23.7081 30.0578 23.8499 30.2327 23.8499H34.666C34.8409 23.8499 34.9827 23.7081 34.9827 23.5332C34.9827 23.3583 34.8409 23.2166 34.666 23.2166Z" fill="white"/>
<path d="M27.7002 25.4334C27.7002 25.6083 27.842 25.75 28.0169 25.75H29.2835C29.4584 25.75 29.6002 25.6083 29.6002 25.4334C29.6002 25.2585 29.4584 25.1167 29.2835 25.1167H28.0169C27.842 25.1167 27.7002 25.2585 27.7002 25.4334Z" fill="white"/>
<path d="M34.6667 25.1167H30.5501C30.3752 25.1167 30.2334 25.2585 30.2334 25.4334C30.2334 25.6083 30.3752 25.75 30.5501 25.75H34.6667C34.8416 25.75 34.9834 25.6083 34.9834 25.4334C34.9834 25.2585 34.8416 25.1167 34.6667 25.1167Z" fill="white"/>
<path d="M35.1625 29.1066C34.6108 28.5529 33.9007 28.1842 33.1304 28.0514C33.0179 28.0296 32.9025 28.0703 32.8285 28.1578C32.7544 28.2452 32.7334 28.3658 32.7735 28.4732C32.8136 28.5805 32.9086 28.6578 33.0218 28.6753C34.5644 28.9476 35.6747 30.309 35.6313 31.8748C35.5878 33.4407 34.4038 34.7384 32.8484 34.9248C31.2931 35.1111 29.8359 34.1299 29.4238 32.6186C29.0116 31.1073 29.7689 29.5222 31.2035 28.8931C31.3581 28.8199 31.4266 28.6371 31.3581 28.4802C31.2897 28.3234 31.109 28.2494 30.9502 28.313C29.4235 28.9818 28.5108 30.5674 28.6993 32.2234C28.8878 33.8794 30.1334 35.2194 31.7713 35.528C33.4092 35.8366 35.0571 35.0419 35.8353 33.568C36.6135 32.0941 36.3404 30.2851 35.1618 29.1066H35.1625Z" fill="white"/>
<path d="M37.6877 35.213L36.8359 34.3609C38.1334 32.1608 37.5924 29.3391 35.5732 27.7749C33.554 26.2108 30.6866 26.3922 28.8807 28.1985C27.0748 30.0047 26.8938 32.8721 28.4584 34.891C30.0229 36.91 32.8447 37.4505 35.0445 36.1526L35.8963 37.0041C35.8374 37.2217 35.8991 37.4542 36.0581 37.614L38.0731 39.6289C38.3106 39.8665 38.6328 39.9999 38.9688 39.9999C39.3047 39.9999 39.6269 39.8665 39.8645 39.6289L40.3122 39.1812C40.8067 38.6865 40.8067 37.8847 40.3122 37.3901L38.297 35.3748C38.1373 35.2161 37.9051 35.1544 37.6877 35.213ZM29.3404 34.928C27.6092 33.1966 27.6093 30.3897 29.3406 28.6584C31.0719 26.9272 33.8788 26.9272 35.6102 28.6584C37.3415 30.3897 37.3416 33.1966 35.6104 34.928C33.8774 36.6562 31.0726 36.6557 29.3404 34.9267V34.928ZM36.0581 35.3761C36.207 35.2253 36.3461 35.0652 36.4749 34.897L37.1776 35.6L36.7298 36.0477L36.2817 36.4942L35.5787 35.7916C35.747 35.6627 35.9071 35.5236 36.0581 35.3748V35.3761ZM40.05 38.2856C40.0505 38.4537 39.9837 38.6149 39.8645 38.7334L39.4167 39.1812C39.1661 39.4205 38.7715 39.4205 38.5209 39.1812L36.5059 37.1659L37.8492 35.8226L39.8645 37.8379C39.9837 37.9563 40.0505 38.1176 40.05 38.2856Z" fill="white"/>
<defs>
<filter id="filter0_d" x="0" y="0" width="61" height="61" filterUnits="userSpaceOnUse" color-interpolation-filters="sRGB">
<feFlood flood-opacity="0" result="BackgroundImageFix"/>
<feColorMatrix in="SourceAlpha" type="matrix" values="0 0 0 0 0 0 0 0 0 0 0 0 0 0 0 0 0 0 127 0"/>
<feOffset/>
<feGaussianBlur stdDeviation="7.5"/>
<feColorMatrix type="matrix" values="0 0 0 0 0.420167 0 0 0 0 0.408333 0 0 0 0 1 0 0 0 0.15 0"/>
<feBlend mode="normal" in2="BackgroundImageFix" result="effect1_dropShadow"/>
<feBlend mode="normal" in="SourceGraphic" in2="effect1_dropShadow" result="shape"/>
</filter>
</defs>
</svg>
