<svg width="21" height="21" viewBox="0 0 21 21" fill="none" xmlns="http://www.w3.org/2000/svg">
<path d="M12.95 12.25H12.565C12.4202 12.2503 12.2906 12.1599 12.2409 12.0239C12.1982 11.9119 12.1524 11.8024 12.103 11.6939C12.0417 11.5619 12.0697 11.4057 12.173 11.3033L12.4474 11.0285C12.8548 10.6176 12.854 9.95483 12.4456 9.54485L11.4566 8.55575C11.046 8.14765 10.3831 8.14765 9.97255 8.55575L9.69815 8.8298C9.59551 8.93274 9.43954 8.9607 9.30755 8.8998C9.19905 8.85045 9.0895 8.8046 8.97715 8.7598C8.84043 8.71041 8.74947 8.58038 8.75 8.435V8.05C8.75 7.47009 8.27991 7 7.7 7H6.3C5.72009 7 5.25 7.47009 5.25 8.05V8.435C5.25026 8.57981 5.15992 8.70936 5.0239 8.7591C4.9119 8.8018 4.80235 8.84765 4.69385 8.897C4.56186 8.95803 4.40584 8.93008 4.30325 8.827L4.0285 8.5526C3.61804 8.14476 2.95531 8.14476 2.54485 8.5526L1.55575 9.54485C1.14765 9.95536 1.14765 10.6183 1.55575 11.0289L1.8298 11.3033C1.93314 11.4057 1.96114 11.5619 1.8998 11.6939C1.85045 11.8024 1.8046 11.9119 1.76155 12.0243C1.71146 12.1611 1.58069 12.2515 1.435 12.25H1.05C0.470094 12.25 0 12.7201 0 13.3V14.7C0 15.2799 0.470094 15.75 1.05 15.75H1.435C1.57981 15.7497 1.70936 15.8401 1.7591 15.9761C1.8018 16.0881 1.84765 16.1977 1.897 16.3062C1.95834 16.4381 1.93034 16.5943 1.827 16.6968L1.5526 16.9715C1.14476 17.382 1.14476 18.0447 1.5526 18.4552L2.5417 19.4443C2.95221 19.8524 3.61519 19.8524 4.0257 19.4443L4.3001 19.1702C4.40274 19.0673 4.55871 19.0393 4.6907 19.1002C4.7992 19.1496 4.90875 19.1954 5.0211 19.2402C5.15852 19.289 5.25026 19.4192 5.25 19.565V19.95C5.25 20.5299 5.72009 21 6.3 21H7.7C8.27991 21 8.75 20.5299 8.75 19.95V19.565C8.74974 19.4202 8.84008 19.2906 8.9761 19.2409C9.0881 19.1982 9.19765 19.1524 9.30615 19.103C9.43814 19.042 9.59416 19.0699 9.69675 19.173L9.9715 19.4474C10.3825 19.8546 11.0451 19.8538 11.4551 19.4457L12.4443 18.4566C12.8524 18.046 12.8524 17.3831 12.4443 16.9726L12.1702 16.6982C12.0669 16.5957 12.0389 16.4395 12.1002 16.3076C12.1495 16.1991 12.1954 16.0895 12.2402 15.9772C12.2896 15.8404 12.4196 15.7495 12.565 15.75H12.95C13.5299 15.75 14 15.2799 14 14.7V13.3C14 12.7201 13.5299 12.25 12.95 12.25ZM13.3 14.7C13.3 14.8933 13.1433 15.05 12.95 15.05H12.565C12.1299 15.0516 11.7405 15.3206 11.585 15.7269C11.5479 15.8249 11.5078 15.9214 11.4646 16.0164C11.2847 16.4136 11.3681 16.8807 11.6746 17.191L11.9483 17.465C12.0851 17.6016 12.0852 17.8232 11.9486 17.96C11.9485 17.9601 11.9484 17.9602 11.9483 17.9603L10.9592 18.9494C10.8225 19.086 10.601 19.086 10.4643 18.9494L10.1899 18.6753C9.87976 18.3686 9.41251 18.2851 9.0153 18.4653C8.92045 18.5084 8.82385 18.5486 8.72655 18.5857C8.32051 18.7412 8.05175 19.1302 8.05 19.565V19.95C8.05 20.1433 7.89329 20.3 7.7 20.3H6.3C6.10671 20.3 5.95 20.1433 5.95 19.95V19.565C5.94838 19.1299 5.67945 18.7405 5.2731 18.585C5.1751 18.5479 5.07863 18.5078 4.98365 18.4646C4.5864 18.2847 4.11937 18.3683 3.80905 18.6746L3.535 18.9483C3.39841 19.0851 3.17677 19.0852 3.04001 18.9486C3.03992 18.9485 3.03984 18.9484 3.03975 18.9483L2.05065 17.9603C1.91402 17.8236 1.91402 17.602 2.05065 17.4654L2.3247 17.191C2.63117 16.8807 2.71464 16.4136 2.5347 16.0164C2.49165 15.9215 2.4514 15.8249 2.4143 15.7276C2.25916 15.3211 1.87005 15.0519 1.435 15.05H1.05C0.856712 15.05 0.7 14.8933 0.7 14.7V13.3C0.7 13.1067 0.856712 12.95 1.05 12.95H1.435C1.87009 12.9484 2.25947 12.6795 2.415 12.2731C2.4521 12.1751 2.49222 12.0786 2.5354 11.9837C2.71534 11.5864 2.63182 11.1193 2.3254 10.8091L2.0503 10.535C1.91354 10.3984 1.91341 10.1768 2.05004 10.04C2.05013 10.0399 2.05021 10.0398 2.0503 10.0398L3.0394 9.05065C3.17607 8.91402 3.39762 8.91402 3.5343 9.05065L3.8087 9.3247C4.11884 9.63143 4.58609 9.71495 4.9833 9.5347C5.07815 9.49165 5.17475 9.4514 5.27205 9.4143C5.67866 9.25929 5.94803 8.87014 5.95 8.435V8.05C5.95 7.85671 6.10671 7.7 6.3 7.7H7.7C7.89329 7.7 8.05 7.85671 8.05 8.05V8.435C8.05162 8.87009 8.32055 9.25947 8.7269 9.415C8.8249 9.4521 8.92137 9.49222 9.01635 9.5354C9.41356 9.71565 9.88081 9.63213 10.191 9.3254L10.465 9.0517C10.6022 8.91599 10.823 8.91599 10.9602 9.0517L11.9493 10.0408C12.086 10.1775 12.086 10.399 11.9493 10.5357L11.6753 10.8101C11.3689 11.1204 11.2854 11.5875 11.4653 11.9847C11.5083 12.0796 11.5486 12.1762 11.5857 12.2735C11.7412 12.6795 12.1302 12.9483 12.565 12.95H12.95C13.1433 12.95 13.3 13.1067 13.3 13.3V14.7Z" fill="#878787"/>
<path d="M10.143 13.8601C10.1395 13.7761 10.1335 13.6925 10.1234 13.6092C10.1122 13.5196 10.0989 13.4307 10.0803 13.3435C10.0681 13.2865 10.052 13.2301 10.0366 13.1734C10.017 13.1013 9.99491 13.0302 9.97041 12.9602C9.95326 12.9116 9.93541 12.8633 9.91721 12.8154C9.87215 12.7033 9.82061 12.5938 9.76286 12.4877C9.75831 12.4797 9.75551 12.471 9.75096 12.4629C9.65991 12.3008 9.55448 12.1472 9.43596 12.004C9.42581 11.9914 9.41426 11.9795 9.40376 11.9673C9.35546 11.9102 9.30576 11.8549 9.25361 11.8021C9.22631 11.7737 9.19761 11.7471 9.16891 11.7198C9.13391 11.6873 9.09891 11.6551 9.06391 11.6243C9.02143 11.5874 8.97816 11.5517 8.93406 11.5172L8.87666 11.4745C8.33508 11.0688 7.6766 10.8497 6.99996 10.8501C6.96496 10.8501 6.92996 10.8553 6.89496 10.8567C6.82041 10.8588 6.74551 10.863 6.67026 10.8707C6.63071 10.8749 6.59081 10.8795 6.55126 10.8851C6.43716 10.9001 6.32393 10.9213 6.21211 10.9484C4.52682 11.3839 3.51365 13.1032 3.94914 14.7885C4.23614 15.8991 5.10379 16.766 6.21456 17.0521C6.22016 17.0521 6.22611 17.0539 6.23206 17.0553C6.35294 17.0854 6.4754 17.1088 6.59886 17.1253C6.68041 17.1354 6.76196 17.1375 6.84386 17.1414C6.89846 17.1442 6.94886 17.1522 7.00591 17.1522C7.10566 17.1522 7.20926 17.1456 7.31496 17.1351C7.32616 17.1351 7.33736 17.1319 7.34996 17.1305C7.43501 17.1211 7.52111 17.1085 7.60896 17.091C7.64396 17.0843 7.67651 17.0756 7.71011 17.0679C7.77171 17.0535 7.83296 17.0385 7.89596 17.0199C7.94496 17.0052 7.99256 16.9881 8.04051 16.9713C8.08846 16.9545 8.13816 16.9363 8.18786 16.9174C8.23756 16.8985 8.27921 16.8768 8.32436 16.8558C8.38316 16.8288 8.44161 16.8022 8.49936 16.7707H8.50146C8.8281 16.5958 9.1298 16.378 9.39851 16.1229C9.47109 16.0551 9.53422 15.9779 9.58611 15.8933C9.85928 15.4553 10.0387 14.9655 10.1132 14.4548C10.123 14.3872 10.1318 14.3197 10.137 14.2507C10.1419 14.1874 10.1454 14.1244 10.1468 14.0614C10.1468 14.0414 10.1496 14.0225 10.1496 14.0026C10.15 13.9532 10.1451 13.9077 10.143 13.8601ZM9.44541 14.0894C9.44541 14.1184 9.44296 14.1475 9.44121 14.1762C9.43491 14.2609 9.42406 14.3456 9.40971 14.4306C9.2789 15.1583 8.82709 15.7883 8.17981 16.1456C8.13641 16.1684 8.09371 16.1897 8.05101 16.2093L8.02196 16.2233C7.81861 16.3156 7.60397 16.3806 7.38356 16.4165C7.36816 16.419 7.35241 16.4218 7.33666 16.4239C7.29291 16.4302 7.24986 16.4354 7.20716 16.4393C7.15081 16.4442 7.09411 16.447 7.03636 16.448C7.01186 16.448 6.98771 16.448 6.96321 16.448C6.88039 16.447 6.7977 16.4419 6.71541 16.4326L6.67341 16.4277C6.57716 16.4151 6.4817 16.3971 6.38746 16.3738C5.07662 16.0383 4.28597 14.7036 4.62145 13.3928C4.84313 12.5266 5.51907 11.85 6.38501 11.6274V11.6271C6.58608 11.5764 6.79258 11.5505 6.99996 11.5501C7.10002 11.5507 7.19998 11.5574 7.29921 11.5704C7.32581 11.5735 7.35206 11.5784 7.37831 11.5823C7.45391 11.5942 7.52881 11.6092 7.60266 11.6281C7.62681 11.6344 7.65096 11.64 7.67476 11.6467C7.86087 11.7004 8.04003 11.7758 8.20851 11.8714C8.23546 11.8871 8.26171 11.9036 8.28831 11.92C8.34361 11.955 8.39716 11.99 8.45001 12.0299C8.47836 12.0506 8.50706 12.0709 8.53436 12.0929C8.60305 12.1478 8.6688 12.2062 8.73141 12.2679C8.75626 12.2931 8.77901 12.3208 8.80316 12.347C8.84341 12.3908 8.88261 12.4356 8.92006 12.4828C8.94596 12.5154 8.97081 12.549 8.99531 12.5829C9.03031 12.6333 9.06531 12.6858 9.09681 12.739C9.11431 12.7681 9.13181 12.7964 9.14966 12.8262C9.19481 12.9093 9.23501 12.9949 9.27006 13.0828C9.28406 13.1178 9.29596 13.1528 9.30856 13.1878C9.33131 13.2522 9.35091 13.3173 9.36806 13.3831C9.37681 13.4181 9.38661 13.4492 9.39396 13.4832C9.41439 13.5777 9.42922 13.6735 9.43841 13.7698C9.44051 13.7954 9.44051 13.8213 9.44226 13.8468C9.44716 13.9273 9.44856 14.0082 9.44541 14.0894Z" fill="#878787"/>
<path d="M19.9502 7.35H18.8494C18.7027 7.35149 18.5714 7.25904 18.5232 7.1204C18.4147 6.79529 18.2834 6.47819 18.1302 6.17155C18.0652 6.03912 18.0923 5.87991 18.1974 5.7764L18.9779 4.99485C19.3876 4.58487 19.3876 3.92048 18.9779 3.5105L17.4897 2.02475C17.0797 1.61508 16.4153 1.61508 16.0053 2.02475L15.2252 2.80455C15.1218 2.90964 14.9628 2.93685 14.8304 2.8721C14.5237 2.71814 14.2065 2.58611 13.8812 2.47695C13.742 2.42931 13.6489 2.29788 13.6502 2.15075V1.05C13.6502 0.470094 13.1801 0 12.6002 0H10.5002C9.92028 0 9.45019 0.470094 9.45019 1.05V2.15075C9.45168 2.29753 9.35928 2.42883 9.22059 2.47695C8.89544 2.58606 8.57834 2.71801 8.27174 2.87175C8.13931 2.93698 7.98002 2.9099 7.87659 2.80455L7.09504 2.02405C6.68458 1.61556 6.02115 1.61556 5.61069 2.02405L4.12529 3.50945C3.7154 3.91948 3.7154 4.58413 4.12529 4.99415L5.27294 6.1439C5.41176 6.27839 5.63335 6.27489 5.76784 6.13603C5.89905 6.00058 5.89935 5.7855 5.76854 5.6497L4.62019 4.5003C4.48356 4.36363 4.48356 4.14208 4.62019 4.0054L6.10559 2.52C6.24227 2.38337 6.46382 2.38337 6.60049 2.52L7.38239 3.3005C7.69875 3.61874 8.1835 3.69828 8.58499 3.4979C8.86223 3.35908 9.14888 3.23991 9.44284 3.14125C9.86713 2.99762 10.152 2.59871 10.1502 2.15075V1.05C10.1502 0.856713 10.3069 0.7 10.5002 0.7H12.6002C12.7935 0.7 12.9502 0.856713 12.9502 1.05V2.15075C12.9484 2.59862 13.2333 2.9974 13.6575 3.1409C13.9516 3.2396 14.2384 3.35886 14.5157 3.4979C14.9173 3.69723 15.4014 3.6176 15.718 3.30015L16.4999 2.52C16.6366 2.38337 16.8581 2.38337 16.9948 2.52L18.4802 4.00575C18.6166 4.14238 18.6166 4.36367 18.4802 4.5003L17.6997 5.2822C17.3818 5.59873 17.3023 6.08326 17.5023 6.4848C17.6411 6.76204 17.7603 7.0487 17.8589 7.34265C18.0025 7.76703 18.4014 8.05193 18.8494 8.05H19.9502C20.1435 8.05 20.3002 8.20671 20.3002 8.4V10.5C20.3002 10.6933 20.1435 10.85 19.9502 10.85H18.8494C18.4016 10.8482 18.0028 11.1331 17.8593 11.5574C17.7606 11.8514 17.6413 12.1382 17.5023 12.4156C17.3026 12.8171 17.3823 13.3014 17.7 13.6178L18.4805 14.3997C18.6172 14.5364 18.6172 14.7579 18.4805 14.8946L16.9944 16.38C16.8578 16.5164 16.6365 16.5164 16.4999 16.38L15.3498 15.2324C15.2153 15.0935 14.9937 15.09 14.8549 15.2245C14.716 15.359 14.7125 15.5806 14.847 15.7194C14.8498 15.7223 14.8527 15.7252 14.8556 15.728L16.0053 16.8756C16.4153 17.2853 17.0797 17.2853 17.4897 16.8756L18.9751 15.3906C19.385 14.9805 19.385 14.3159 18.9751 13.9059L18.1956 13.125C18.0906 13.0216 18.0635 12.8626 18.1281 12.7302C18.282 12.4235 18.4141 12.1063 18.5232 11.781C18.5709 11.6418 18.7023 11.5487 18.8494 11.55H19.9502C20.5301 11.55 21.0002 11.0799 21.0002 10.5V8.4C21.0002 7.8201 20.5301 7.35 19.9502 7.35Z" fill="#878787"/>
<path d="M14.767 6.23275C12.9891 4.45855 10.1105 4.45855 8.33261 6.23275C8.19834 6.37178 8.20219 6.59338 8.34123 6.72765C8.47685 6.85863 8.69188 6.85863 8.82751 6.72765C10.3209 5.21407 12.7585 5.19775 14.2721 6.69116C15.7857 8.18456 15.802 10.6222 14.3086 12.1358C14.2965 12.148 14.2844 12.1602 14.2721 12.1722C14.1331 12.3066 14.1292 12.5281 14.2635 12.6671C14.3979 12.8062 14.6194 12.81 14.7584 12.6757C14.7613 12.6729 14.7642 12.67 14.767 12.6671C16.5412 10.8892 16.5412 8.01066 14.767 6.23275Z" fill="#878787"/>
</svg>
