<svg width="25" height="25" viewBox="0 0 25 25" fill="none" xmlns="http://www.w3.org/2000/svg">
<path d="M17.8711 19.3359C17.6016 19.3359 17.3828 19.5547 17.3828 19.8242C17.3828 20.0938 17.6016 20.3125 17.8711 20.3125C18.1406 20.3125 18.3594 20.0938 18.3594 19.8242C18.3594 19.5547 18.1406 19.3359 17.8711 19.3359Z" fill="#878787"/>
<path d="M19.0733 17.757L16.7525 16.9835L15.9194 15.3172C16.67 14.5532 17.1911 13.5424 17.3668 12.488L17.4708 11.8652H18.3594C19.1671 11.8652 19.8242 11.2081 19.8242 10.4004V7.32422C19.8242 3.28564 16.5386 0 12.5 0C8.45107 0 5.17578 3.27622 5.17578 7.32422V10.4004C5.17578 11.0369 5.58403 11.5797 6.15234 11.7812V12.3535C6.15234 13.1612 6.80947 13.8184 7.61719 13.8184H8.046C8.25767 14.2782 8.53164 14.7041 8.86504 15.0866C8.93418 15.1661 9.0063 15.2432 9.08018 15.3181L8.24746 16.9835L5.92661 17.757C3.22812 18.6568 1.26953 21.4976 1.26953 24.5117C1.26953 24.7814 1.48813 25 1.75781 25H23.2422C23.5118 25 23.7305 24.7814 23.7305 24.5117C23.7305 21.4976 21.7719 18.6568 19.0733 17.757ZM18.8477 10.4004C18.8477 10.6696 18.6286 10.8887 18.3594 10.8887H17.6142C17.7383 9.92725 17.821 8.90415 17.8542 7.89648C17.8552 7.86807 17.856 7.84043 17.8569 7.8125H18.8477V10.4004ZM6.64062 10.8887C6.37139 10.8887 6.15234 10.6696 6.15234 10.4004V7.8125H7.14346C7.14507 7.86343 7.14678 7.9146 7.14868 7.96611C7.14873 7.96787 7.14883 7.96958 7.14888 7.97134C7.14888 7.97148 7.14888 7.97163 7.14888 7.97178C7.18306 8.95185 7.2647 9.94839 7.38599 10.8886H6.64062V10.8887ZM7.61719 12.8418C7.34795 12.8418 7.12891 12.6228 7.12891 12.3535V11.8652H7.5292L7.63311 12.4882C7.65293 12.6066 7.67729 12.7246 7.70547 12.8418H7.61719ZM7.12974 6.83594H6.1709C6.41821 3.56343 9.14927 0.976562 12.5 0.976562C15.8358 0.976562 18.5789 3.56309 18.8291 6.83594H17.8703C17.8352 4.13931 15.6392 1.95312 12.9371 1.95312H12.063C9.36094 1.95312 7.16484 4.13931 7.12974 6.83594ZM12.063 2.92969H12.937C15.125 2.92969 16.8958 4.71929 16.8945 6.90479C16.8945 7.05845 16.8933 7.19224 16.8907 7.31396C16.8907 7.31553 16.8907 7.31714 16.8907 7.31875L16.2799 7.23149C14.6208 6.99458 13.0542 6.21128 11.8687 5.02583C11.7771 4.93428 11.6529 4.88281 11.5234 4.88281C10.2121 4.88281 8.95684 5.48027 8.12705 6.48965C8.33154 4.50142 10.0124 2.92969 12.063 2.92969ZM8.71777 12.8418C8.47334 12.0287 8.19365 9.63608 8.13184 8.10288L8.78901 7.22661C9.39258 6.42212 10.3316 5.92227 11.3305 5.86489C12.6448 7.11567 14.3451 7.94165 16.1418 8.19819L16.8607 8.30093C16.8126 9.3207 16.7145 10.344 16.5738 11.2852C16.5737 11.2855 16.5737 11.2858 16.5736 11.2862C16.5289 11.5888 16.4937 11.7835 16.4036 12.3274C16.145 13.8784 14.9877 15.281 13.4599 15.663C12.8312 15.82 12.1687 15.8199 11.5403 15.663C10.5864 15.4245 9.71167 14.7645 9.14717 13.8184H10.1426C10.3441 14.3867 10.8869 14.7949 11.5234 14.7949H12.5C13.3093 14.7949 13.9648 14.1395 13.9648 13.3301C13.9648 12.5224 13.3077 11.8652 12.5 11.8652H11.5234C10.8727 11.8652 10.338 12.2855 10.1417 12.8418H8.71777ZM11.4824 16.6512C11.8173 16.7217 12.1587 16.7578 12.5 16.7578C12.7671 16.7578 13.0343 16.7354 13.2985 16.6921L12.4357 17.6045L11.4824 16.6512ZM11.7644 18.3144L10.2157 19.9522C9.78931 19.1361 9.42295 18.2867 9.12246 17.4172L9.70405 16.254L11.7644 18.3144ZM15.2132 16.0886L15.8774 17.4171C15.5765 18.2881 15.21 19.1378 14.7841 19.9529L13.1265 18.2953L15.2132 16.0886ZM11.0352 13.3301C11.0352 13.0605 11.2538 12.8418 11.5234 12.8418H12.5C12.7692 12.8418 12.9883 13.0608 12.9883 13.3301C12.9883 13.5997 12.7696 13.8184 12.5 13.8184H11.5234C11.2542 13.8184 11.0352 13.5993 11.0352 13.3301ZM2.26563 24.0234C2.45913 21.6045 4.06895 19.4059 6.23545 18.6834L8.29082 17.9985C8.66738 19.0397 9.13389 20.0518 9.68062 21.0131C9.68154 21.0148 9.68242 21.0165 9.68335 21.0181C9.68335 21.0181 9.6834 21.0181 9.6834 21.0182C10.0829 21.7208 10.5325 22.4073 11.0199 23.0591L11.6206 24.0234H2.26563ZM12.5 23.5882L11.8378 22.525C11.8304 22.5131 11.8225 22.5016 11.8141 22.4903C11.4187 21.9629 11.0498 21.4113 10.7139 20.8467L12.4552 19.0052L14.2901 20.84C13.9519 21.4087 13.5818 21.9626 13.186 22.4902C13.1621 22.5221 13.196 22.4719 12.5 23.5882ZM13.3794 24.0234L13.98 23.0592C14.4696 22.4049 14.9225 21.7128 15.3259 21.002C15.3284 20.9977 15.3307 20.9933 15.3331 20.989C15.3334 20.9884 15.3337 20.9879 15.334 20.9874C15.8738 20.0353 16.3354 19.032 16.7092 17.9985L18.7645 18.6834C20.9311 19.4059 22.5409 21.6045 22.7344 24.0234H13.3794Z" fill="#878787"/>
<path d="M21.2669 22.0475C20.9406 21.3943 20.4626 20.814 19.8847 20.3694C19.6709 20.2049 19.3643 20.2449 19.1999 20.4587C19.0355 20.6724 19.0755 20.979 19.2892 21.1434C19.7508 21.4986 20.1326 21.9621 20.3933 22.4839C20.514 22.7256 20.8075 22.8228 21.0483 22.7025C21.2895 22.582 21.3874 22.2887 21.2669 22.0475Z" fill="#878787"/>
</svg>
