<svg width="28" height="28" viewBox="0 0 28 28" fill="none" xmlns="http://www.w3.org/2000/svg">
<g clip-path="url(#clip0)">
<path d="M14.0009 27.9998C21.7328 27.9998 28.0007 21.7318 28.0007 13.9999C28.0007 6.26796 21.7328 0 14.0009 0C6.26893 0 0.000976562 6.26796 0.000976562 13.9999C0.000976562 21.7318 6.26893 27.9998 14.0009 27.9998Z" fill="#55ACEE"/>
<path d="M22.576 10.0612C21.976 10.3272 21.3306 10.5071 20.6538 10.5875C21.3449 10.1735 21.8752 9.51839 22.1255 8.73651C21.4789 9.12009 20.7624 9.39835 20.0005 9.54834C19.3901 8.89823 18.5203 8.49194 17.5573 8.49194C15.7095 8.49194 14.2109 9.99056 14.2109 11.8383C14.2109 12.1006 14.2406 12.3559 14.298 12.601C11.5169 12.4615 9.05099 11.1293 7.40039 9.10412C7.1124 9.59825 6.94719 10.1735 6.94719 10.7867C6.94719 11.9474 7.5384 12.9721 8.43582 13.572C7.88753 13.5548 7.37119 13.4043 6.92023 13.153C6.91998 13.1672 6.91998 13.1814 6.91998 13.1954C6.91998 14.8168 8.07396 16.1692 9.60451 16.4764C9.32401 16.5533 9.02778 16.5939 8.72306 16.5939C8.50694 16.5939 8.29756 16.5732 8.09342 16.5343C8.51917 17.8635 9.75475 18.831 11.2194 18.8582C10.0739 19.7559 8.63123 20.2907 7.06298 20.2907C6.79346 20.2907 6.52643 20.275 6.26514 20.2438C7.74528 21.1936 9.50469 21.7474 11.3944 21.7474C17.5495 21.7474 20.9156 16.6483 20.9156 12.2259C20.9156 12.0809 20.9124 11.9364 20.9059 11.7931C21.5602 11.3215 22.1275 10.7323 22.576 10.0612Z" fill="#F1F2F2"/>
</g>
<defs>
<clipPath id="clip0">
<rect width="28" height="28" fill="white"/>
</clipPath>
</defs>
</svg>
