<svg width="22" height="22" viewBox="0 0 22 22" fill="none" xmlns="http://www.w3.org/2000/svg">
<path d="M22 5.71484V3.99609H20.4587C20.3774 3.68122 20.2518 3.38405 20.0901 3.11072L21.1813 2.01953L19.9659 0.804203L18.8748 1.89539C18.5933 1.72885 18.2863 1.60119 17.9609 1.52011V0H16.2422V1.53484C15.9379 1.61627 15.6503 1.73856 15.3853 1.89539L14.2941 0.804203L13.0787 2.01953L14.1699 3.11072C14.0082 3.38405 13.8826 3.68122 13.8013 3.99609H12.2461V5.7148H13.8013C13.8826 6.02972 14.0082 6.32685 14.1699 6.60017L13.0787 7.69141L14.2941 8.90673L15.3853 7.81554C15.6503 7.97238 15.9379 8.09467 16.2422 8.17609V9.71094H17.9609V8.19083C18.2863 8.10975 18.5933 7.98209 18.8748 7.81554L19.9659 8.90673L21.1813 7.69141L20.0901 6.60021C20.2518 6.32689 20.3774 6.02972 20.4588 5.71484H22ZM17.13 6.57422C16.1823 6.57422 15.4113 5.80319 15.4113 4.85547C15.4113 4.48645 15.5286 4.14451 15.7273 3.86414L16.1387 3.45271C16.4191 3.25398 16.761 3.13672 17.13 3.13672C18.0777 3.13672 18.8488 3.90775 18.8488 4.85547C18.8488 5.80319 18.0777 6.57422 17.13 6.57422Z" fill="#878787"/>
<path d="M12.9601 13.0283C13.5358 12.5984 14.0264 12.0604 14.401 11.4443L13.133 10.1763C12.5177 11.4987 11.177 12.418 9.625 12.418C7.49263 12.418 5.75781 10.6831 5.75781 8.55078C5.75781 6.41841 7.49263 4.68359 9.625 4.68359C9.93364 4.68359 10.2339 4.72016 10.5218 4.78882L10.525 3.03772C10.2319 2.99002 9.93137 2.96484 9.625 2.96484C6.54491 2.96484 4.03906 5.4707 4.03906 8.55078C4.03906 10.3688 4.91223 11.9865 6.26102 13.0072C4.97827 13.4801 3.80205 14.2289 2.8065 15.2245C0.996703 17.0343 0 19.4406 0 22H1.71875C1.71875 17.6642 5.24618 14.1367 9.58203 14.1367C13.9179 14.1367 17.4453 17.6642 17.4453 22H19.1641C19.1641 19.4406 18.1674 17.0343 16.3576 15.2245C15.3768 14.2437 14.2206 13.5023 12.9601 13.0283Z" fill="#878787"/>
</svg>
